<?xml version="1.0" encoding="UTF-8"?>
<svg xmlns="http://www.w3.org/2000/svg" viewBox="0 0 666.58 667.65">
  <defs>
    <style>
      .cls-1 {
        isolation: isolate;
      }

      .cls-2 {
        fill: #451818;
        stroke-width: 0px;
      }

      .cls-3 {
        mix-blend-mode: darken;
      }
    </style>
  </defs>
  <g class="cls-1">
    <g id="Layer_2" data-name="Layer 2">
      <g id="main_design" data-name="main design">
        <g class="cls-3">
          <path class="cls-2" d="M665.85,204.01c-15.26,68.56-61.04,80.27-61.04,80.27-5.02-17.77,19.23-74.83,19.23-74.83,51.63-107.65-8.99-149.04-8.99-149.04,28.85,65.01,0,111.41,0,111.41C563.22,12.96,473.55.42,473.55.42c87.17,42.22,113.5,159.07,113.5,159.07,12.75,45.15-11.08,85.08-11.08,85.08-15.26-1.25-29.06-65.22-29.06-65.22-29.06-108.9-64.8-93.85-64.8-93.85,45.57,18.81,44.31,112.67,44.31,112.67-29.26,0-66.47-48.7-66.47-48.7-10.24,18.81,90.3,108.9,90.3,108.9,8.57,16.3,0,26.13,0,26.13-10.24,21.11-54.56,36.58-54.56,36.58-30.73,12.54-35.74-2.51-35.74-2.51-5.85-56.65-40.97-65.64-40.97-65.64,21.74,21.74,21.53,52.88,21.53,52.88,2.3,23.83-46.2,47.87-46.2,47.87-8.15,3.14-13.59,6.06-16.93,8.78h0c-15.68,7.53-29.89,10.03-43.06,9.82v-.21c-13.38.21-27.8-2.09-43.69-9.82h-.21c-3.14-3.14-8.78-6.9-17.56-10.87,0,0-49.33-21.95-47.03-45.99,0,0-3.55-27.38,18.19-52.47,0,0-31.56,8.57-37.42,65.22,0,0-5.02,15.05-35.74,2.51,0,0-44.31-15.68-54.56-36.58,0,0-8.57-9.82,0-26.13,0,0,100.54-90.09,90.3-108.9,0,0-37.21,48.7-66.47,48.7,0,0-1.25-93.85,44.31-112.67,0,0-35.74-15.05-64.8,93.85,0,0-13.59,63.96-29.06,65.22,0,0-24.04-40.13-11.08-85.08,0,0,26.13-116.85,113.5-159.07,0,0-89.46,12.54-141.51,171.4,0,0-28.85-46.4,0-111.41,0,0-60.83,41.39-8.99,149.04,0,0,24.46,57.07,19.23,74.83,0,0-45.78-11.71-61.04-80.27,0,0-16.3,75.25,106.19,122.91,0,0,89.88,27.59,137.33,59.16,0,0,29.68,40.34-7.32,22.58-29.89-14.42-64.59-32.19-86.54-45.36-22.16-13.17,24.46,81.52,91.55,94.27,0,0,19.02,52.26,25.5,79.64,0,0,14.42,30.1,10.87,65.01,0,0,23.83,65.64,55.81,65.84h0c32.4.63,56.44-65.84,56.44-65.84-4.18-37.83,10.87-65.01,10.87-65.01,4.6-25.29,24.87-80.48,24.87-80.48,69.19-10.87,114.34-106.61,92.18-93.44-22.16,13.17-56.86,30.94-86.54,45.36-38.04,18.39-7.73-22.99-7.73-22.99v-.21c47.87-31.35,136.29-58.53,136.29-58.53,121.66-47.45,105.35-122.49,105.35-122.49Z"/>
          <path class="cls-2" d="M400.59,265.26c-12.33-22.16-36.79-11.29-36.79-11.29-6.9,4.18-7.32,1.05-7.32,1.05-3.14-5.23-12.54-5.23-12.54-5.23-4.39-.21-4.81-.84-4.81-.84,4.39-.21,3.76-5.64,3.76-5.64-.21-3.34-4.39-4.39-4.39-4.39-2.3-.84-2.09-3.55-2.09-3.55v-3.34l6.69,2.72v-9.2l-6.9,1.46,1.67-6.69-4.39,1.05-4.39-1.05,1.67,6.69-6.9-1.46v9.2l6.69-2.72v3.34s.21,2.72-2.09,3.55c0,0-4.18,1.05-4.39,4.39,0,0-.63,5.43,3.76,5.64,0,0-.42.63-4.81.84,0,0-9.41,0-12.54,5.23,0,0-.42,3.14-7.32-1.05,0,0-24.46-10.87-36.79,11.29,0,0-14.63,26.13,8.99,50.59,0,0,6.48,5.23,7.11,7.53l-.63,2.72v2.51h102.42v-2.51l-.63-2.72c.63-2.3,7.11-7.53,7.11-7.53,24.46-24.46,9.82-50.59,9.82-50.59ZM298.8,313.75c-7.32,13.8-19.86-6.27-19.86-6.27-13.8-24.87,1.88-41.6,1.88-41.6,12.12-12.33,19.65,0,19.65,0,1.25,1.46-2.72,8.36-2.72,8.36-8.57,19.23,1.05,39.51,1.05,39.51ZM328.48,292.85s-.63,5.64-5.43,1.05c0,0-3.76-2.09-6.9,1.05-2.93,2.72-1.88,11.5,10.87,14.63,0,0,3.55,3.55-.63,6.27,0,0-19.65,7.11-21.32-25.08,0,0-.63-26.96,23.62-31.15l-.21,33.24ZM362.97,290.97c-1.67,31.98-21.32,25.08-21.32,25.08-4.18-2.72-.63-6.27-.63-6.27,12.75-3.14,13.8-11.91,10.87-14.63-2.93-2.93-6.9-1.05-6.9-1.05-5.02,4.39-5.43-1.05-5.43-1.05l-.21-33.24c24.25,3.97,23.62,31.15,23.62,31.15ZM389.1,307.48s-12.54,20.07-19.86,6.27c0,0,9.62-20.28,1.25-39.51,0,0-3.97-6.9-2.72-8.36,0,0,7.32-12.33,19.65,0-.42,0,15.47,16.72,1.67,41.6Z"/>
          <polygon class="cls-2" points="282.7 328.8 282.7 337.37 385.34 337.37 385.13 328.8 282.7 328.8"/>
        </g>
      </g>
    </g>
  </g>
</svg>