<?xml version="1.0" encoding="UTF-8"?>
<svg xmlns="http://www.w3.org/2000/svg" viewBox="0 0 1070.29 1072">
  <defs>
    <style>
      .cls-1 {
        isolation: isolate;
      }

      .cls-2 {
        mix-blend-mode: soft-light;
      }

      .cls-3 {
        mix-blend-mode: multiply;
        opacity: .55;
      }

      .cls-4 {
        fill: #070707;
        stroke-width: 0px;
      }
    </style>
  </defs>
  <g class="cls-1">
    <g id="Layer_2" data-name="Layer 2">
      <g id="main_design" data-name="main design">
        <g class="cls-3">
          <g class="cls-2">
            <path class="cls-4" d="M1069.12,327.57c-24.5,110.09-98,128.88-98,128.88-8.06-28.53,30.88-120.15,30.88-120.15,82.9-172.85-14.43-239.3-14.43-239.3,46.32,104.38,0,178.89,0,178.89C904.33,20.81,760.35.67,760.35.67c139.96,67.8,182.25,255.41,182.25,255.41,20.47,72.5-17.79,136.6-17.79,136.6-24.5-2.01-46.65-104.72-46.65-104.72-46.65-174.86-104.04-150.7-104.04-150.7,73.17,30.21,71.15,180.9,71.15,180.9-46.99,0-106.73-78.2-106.73-78.2-16.45,30.21,144.99,174.86,144.99,174.86,13.76,26.18,0,41.95,0,41.95-16.45,33.9-87.6,58.73-87.6,58.73-49.34,20.14-57.39-4.03-57.39-4.03-9.4-90.95-65.78-105.39-65.78-105.39,34.91,34.91,34.57,84.91,34.57,84.91,3.69,38.26-74.17,76.86-74.17,76.86-13.09,5.03-21.82,9.73-27.19,14.1h0c-25.17,12.08-47.99,16.11-69.14,15.77v-.34c-21.48.34-44.64-3.36-70.15-15.77h-.34c-5.03-5.03-14.1-11.08-28.19-17.45,0,0-79.21-35.24-75.52-73.84,0,0-5.71-43.97,29.2-84.24,0,0-50.68,13.76-60.08,104.72,0,0-8.06,24.17-57.39,4.03,0,0-71.15-25.17-87.6-58.73,0,0-13.76-15.77,0-41.95,0,0,161.44-144.66,144.99-174.86,0,0-59.74,78.2-106.73,78.2,0,0-2.01-150.7,71.15-180.9,0,0-57.39-24.17-104.04,150.7,0,0-21.82,102.7-46.65,104.72,0,0-38.6-64.44-17.79-136.6,0,0,41.95-187.62,182.25-255.41,0,0-143.65,20.14-227.22,275.21,0,0-46.32-74.51,0-178.89,0,0-97.67,66.45-14.43,239.3,0,0,39.27,91.63,30.88,120.15,0,0-73.5-18.8-98-128.88,0,0-26.18,120.83,170.5,197.35,0,0,144.32,44.3,220.51,94.98,0,0,47.66,64.78-11.75,36.25-47.99-23.16-103.71-51.69-138.95-72.83-35.58-21.14,39.27,130.89,147,151.37,0,0,30.54,83.91,40.95,127.87,0,0,23.16,48.33,17.45,104.38,0,0,38.26,105.39,89.61,105.72h0c52.02,1.01,90.62-105.72,90.62-105.72-6.71-60.75,17.45-104.38,17.45-104.38,7.38-40.61,39.94-129.22,39.94-129.22,111.09-17.45,183.59-171.17,148.01-150.03-35.58,21.14-91.29,49.67-138.95,72.83-61.08,29.54-12.42-36.92-12.42-36.92v-.34c76.86-50.34,218.83-93.98,218.83-93.98,195.33-76.19,169.16-196.68,169.16-196.68Z"/>
            <path class="cls-4" d="M643.21,425.91c-19.8-35.58-59.07-18.12-59.07-18.12-11.08,6.71-11.75,1.68-11.75,1.68-5.03-8.39-20.14-8.39-20.14-8.39-7.05-.34-7.72-1.34-7.72-1.34,7.05-.34,6.04-9.06,6.04-9.06-.34-5.37-7.05-7.05-7.05-7.05-3.69-1.34-3.36-5.71-3.36-5.71v-5.37l10.74,4.36v-14.77l-11.08,2.35,2.69-10.74-7.05,1.68-7.05-1.68,2.69,10.74-11.08-2.35v14.77l10.74-4.36v5.37s.34,4.36-3.36,5.71c0,0-6.71,1.68-7.05,7.05,0,0-1.01,8.73,6.04,9.06,0,0-.67,1.01-7.72,1.34,0,0-15.1,0-20.14,8.39,0,0-.67,5.03-11.75-1.68,0,0-39.27-17.45-59.07,18.12,0,0-23.49,41.95,14.43,81.22,0,0,10.4,8.39,11.41,12.08l-1.01,4.36v4.03h164.46v-4.03l-1.01-4.36c1.01-3.69,11.41-12.08,11.41-12.08,39.27-39.27,15.77-81.22,15.77-81.22ZM479.76,503.78c-11.75,22.15-31.88-10.07-31.88-10.07-22.15-39.94,3.02-66.79,3.02-66.79,19.47-19.8,31.55,0,31.55,0,2.01,2.35-4.36,13.43-4.36,13.43-13.76,30.88,1.68,63.43,1.68,63.43ZM527.42,470.21s-1.01,9.06-8.73,1.68c0,0-6.04-3.36-11.08,1.68-4.7,4.36-3.02,18.46,17.45,23.49,0,0,5.71,5.71-1.01,10.07,0,0-31.55,11.41-34.23-40.28,0,0-1.01-43.3,37.93-50.01l-.34,53.36ZM582.8,467.19c-2.69,51.35-34.23,40.28-34.23,40.28-6.71-4.36-1.01-10.07-1.01-10.07,20.47-5.03,22.15-19.13,17.45-23.49-4.7-4.7-11.08-1.68-11.08-1.68-8.06,7.05-8.73-1.68-8.73-1.68l-.34-53.36c38.93,6.38,37.93,50.01,37.93,50.01ZM624.75,493.71s-20.14,32.22-31.88,10.07c0,0,15.44-32.56,2.01-63.43,0,0-6.38-11.08-4.36-13.43,0,0,11.75-19.8,31.55,0-.67,0,24.84,26.85,2.69,66.79Z"/>
            <polygon class="cls-4" points="453.92 527.94 453.92 541.7 618.71 541.7 618.38 527.94 453.92 527.94"/>
          </g>
          <g class="cls-2">
            <path class="cls-4" d="M1069.12,327.57c-24.5,110.09-98,128.88-98,128.88-8.06-28.53,30.88-120.15,30.88-120.15,82.9-172.85-14.43-239.3-14.43-239.3,46.32,104.38,0,178.89,0,178.89C904.33,20.81,760.35.67,760.35.67c139.96,67.8,182.25,255.41,182.25,255.41,20.47,72.5-17.79,136.6-17.79,136.6-24.5-2.01-46.65-104.72-46.65-104.72-46.65-174.86-104.04-150.7-104.04-150.7,73.17,30.21,71.15,180.9,71.15,180.9-46.99,0-106.73-78.2-106.73-78.2-16.45,30.21,144.99,174.86,144.99,174.86,13.76,26.18,0,41.95,0,41.95-16.45,33.9-87.6,58.73-87.6,58.73-49.34,20.14-57.39-4.03-57.39-4.03-9.4-90.95-65.78-105.39-65.78-105.39,34.91,34.91,34.57,84.91,34.57,84.91,3.69,38.26-74.17,76.86-74.17,76.86-13.09,5.03-21.82,9.73-27.19,14.1h0c-25.17,12.08-47.99,16.11-69.14,15.77v-.34c-21.48.34-44.64-3.36-70.15-15.77h-.34c-5.03-5.03-14.1-11.08-28.19-17.45,0,0-79.21-35.24-75.52-73.84,0,0-5.71-43.97,29.2-84.24,0,0-50.68,13.76-60.08,104.72,0,0-8.06,24.17-57.39,4.03,0,0-71.15-25.17-87.6-58.73,0,0-13.76-15.77,0-41.95,0,0,161.44-144.66,144.99-174.86,0,0-59.74,78.2-106.73,78.2,0,0-2.01-150.7,71.15-180.9,0,0-57.39-24.17-104.04,150.7,0,0-21.82,102.7-46.65,104.72,0,0-38.6-64.44-17.79-136.6,0,0,41.95-187.62,182.25-255.41,0,0-143.65,20.14-227.22,275.21,0,0-46.32-74.51,0-178.89,0,0-97.67,66.45-14.43,239.3,0,0,39.27,91.63,30.88,120.15,0,0-73.5-18.8-98-128.88,0,0-26.18,120.83,170.5,197.35,0,0,144.32,44.3,220.51,94.98,0,0,47.66,64.78-11.75,36.25-47.99-23.16-103.71-51.69-138.95-72.83-35.58-21.14,39.27,130.89,147,151.37,0,0,30.54,83.91,40.95,127.87,0,0,23.16,48.33,17.45,104.38,0,0,38.26,105.39,89.61,105.72h0c52.02,1.01,90.62-105.72,90.62-105.72-6.71-60.75,17.45-104.38,17.45-104.38,7.38-40.61,39.94-129.22,39.94-129.22,111.09-17.45,183.59-171.17,148.01-150.03-35.58,21.14-91.29,49.67-138.95,72.83-61.08,29.54-12.42-36.92-12.42-36.92v-.34c76.86-50.34,218.83-93.98,218.83-93.98,195.33-76.19,169.16-196.68,169.16-196.68Z"/>
            <path class="cls-4" d="M643.21,425.91c-19.8-35.58-59.07-18.12-59.07-18.12-11.08,6.71-11.75,1.68-11.75,1.68-5.03-8.39-20.14-8.39-20.14-8.39-7.05-.34-7.72-1.34-7.72-1.34,7.05-.34,6.04-9.06,6.04-9.06-.34-5.37-7.05-7.05-7.05-7.05-3.69-1.34-3.36-5.71-3.36-5.71v-5.37l10.74,4.36v-14.77l-11.08,2.35,2.69-10.74-7.05,1.68-7.05-1.68,2.69,10.74-11.08-2.35v14.77l10.74-4.36v5.37s.34,4.36-3.36,5.71c0,0-6.71,1.68-7.05,7.05,0,0-1.01,8.73,6.04,9.06,0,0-.67,1.01-7.72,1.34,0,0-15.1,0-20.14,8.39,0,0-.67,5.03-11.75-1.68,0,0-39.27-17.45-59.07,18.12,0,0-23.49,41.95,14.43,81.22,0,0,10.4,8.39,11.41,12.08l-1.01,4.36v4.03h164.46v-4.03l-1.01-4.36c1.01-3.69,11.41-12.08,11.41-12.08,39.27-39.27,15.77-81.22,15.77-81.22ZM479.76,503.78c-11.75,22.15-31.88-10.07-31.88-10.07-22.15-39.94,3.02-66.79,3.02-66.79,19.47-19.8,31.55,0,31.55,0,2.01,2.35-4.36,13.43-4.36,13.43-13.76,30.88,1.68,63.43,1.68,63.43ZM527.42,470.21s-1.01,9.06-8.73,1.68c0,0-6.04-3.36-11.08,1.68-4.7,4.36-3.02,18.46,17.45,23.49,0,0,5.71,5.71-1.01,10.07,0,0-31.55,11.41-34.23-40.28,0,0-1.01-43.3,37.93-50.01l-.34,53.36ZM582.8,467.19c-2.69,51.35-34.23,40.28-34.23,40.28-6.71-4.36-1.01-10.07-1.01-10.07,20.47-5.03,22.15-19.13,17.45-23.49-4.7-4.7-11.08-1.68-11.08-1.68-8.06,7.05-8.73-1.68-8.73-1.68l-.34-53.36c38.93,6.38,37.93,50.01,37.93,50.01ZM624.75,493.71s-20.14,32.22-31.88,10.07c0,0,15.44-32.56,2.01-63.43,0,0-6.38-11.08-4.36-13.43,0,0,11.75-19.8,31.55,0-.67,0,24.84,26.85,2.69,66.79Z"/>
            <polygon class="cls-4" points="453.92 527.94 453.92 541.7 618.71 541.7 618.38 527.94 453.92 527.94"/>
          </g>
        </g>
      </g>
    </g>
  </g>
</svg>