<?xml version="1.0" encoding="UTF-8"?>
<svg xmlns="http://www.w3.org/2000/svg" viewBox="0 0 163.79 164.05">
  <defs>
    <style>
      .cls-1 {
        isolation: isolate;
      }

      .cls-2 {
        mix-blend-mode: soft-light;
      }

      .cls-3 {
        fill: #c9ac45;
        stroke-width: 0px;
      }
    </style>
  </defs>
  <g class="cls-1">
    <g id="Layer_2" data-name="Layer 2">
      <g id="main_design" data-name="main design">
        <g>
          <g class="cls-2">
            <path class="cls-3" d="M163.61,50.13c-3.75,16.85-15,19.72-15,19.72-1.23-4.37,4.73-18.39,4.73-18.39,12.69-26.45-2.21-36.62-2.21-36.62,7.09,15.97,0,27.38,0,27.38C138.39,3.18,116.36.1,116.36.1c21.42,10.37,27.89,39.09,27.89,39.09,3.13,11.09-2.72,20.9-2.72,20.9-3.75-.31-7.14-16.02-7.14-16.02-7.14-26.76-15.92-23.06-15.92-23.06,11.2,4.62,10.89,27.68,10.89,27.68-7.19,0-16.33-11.97-16.33-11.97-2.52,4.62,22.19,26.76,22.19,26.76,2.11,4.01,0,6.42,0,6.42-2.52,5.19-13.41,8.99-13.41,8.99-7.55,3.08-8.78-.62-8.78-.62-1.44-13.92-10.07-16.13-10.07-16.13,5.34,5.34,5.29,12.99,5.29,12.99.56,5.86-11.35,11.76-11.35,11.76-2,.77-3.34,1.49-4.16,2.16h0c-3.85,1.85-7.34,2.47-10.58,2.41v-.05c-3.29.05-6.83-.51-10.73-2.41h-.05c-.77-.77-2.16-1.69-4.31-2.67,0,0-12.12-5.39-11.56-11.3,0,0-.87-6.73,4.47-12.89,0,0-7.76,2.11-9.19,16.02,0,0-1.23,3.7-8.78.62,0,0-10.89-3.85-13.41-8.99,0,0-2.11-2.41,0-6.42,0,0,24.7-22.14,22.19-26.76,0,0-9.14,11.97-16.33,11.97,0,0-.31-23.06,10.89-27.68,0,0-8.78-3.7-15.92,23.06,0,0-3.34,15.72-7.14,16.02,0,0-5.91-9.86-2.72-20.9,0,0,6.42-28.71,27.89-39.09,0,0-21.98,3.08-34.77,42.12,0,0-7.09-11.4,0-27.38,0,0-14.95,10.17-2.21,36.62,0,0,6.01,14.02,4.73,18.39,0,0-11.25-2.88-15-19.72,0,0-4.01,18.49,26.09,30.2,0,0,22.09,6.78,33.74,14.54,0,0,7.29,9.91-1.8,5.55-7.34-3.54-15.87-7.91-21.26-11.15-5.44-3.24,6.01,20.03,22.5,23.16,0,0,4.67,12.84,6.27,19.57,0,0,3.54,7.4,2.67,15.97,0,0,5.86,16.13,13.71,16.18h0c7.96.15,13.87-16.18,13.87-16.18-1.03-9.3,2.67-15.97,2.67-15.97,1.13-6.21,6.11-19.77,6.11-19.77,17-2.67,28.09-26.19,22.65-22.96-5.44,3.24-13.97,7.6-21.26,11.15-9.35,4.52-1.9-5.65-1.9-5.65v-.05c11.76-7.7,33.49-14.38,33.49-14.38,29.89-11.66,25.89-30.1,25.89-30.1Z"/>
            <path class="cls-3" d="M98.43,65.18c-3.03-5.44-9.04-2.77-9.04-2.77-1.69,1.03-1.8.26-1.8.26-.77-1.28-3.08-1.28-3.08-1.28-1.08-.05-1.18-.21-1.18-.21,1.08-.05.92-1.39.92-1.39-.05-.82-1.08-1.08-1.08-1.08-.56-.21-.51-.87-.51-.87v-.82l1.64.67v-2.26l-1.69.36.41-1.64-1.08.26-1.08-.26.41,1.64-1.69-.36v2.26l1.64-.67v.82s.05.67-.51.87c0,0-1.03.26-1.08,1.08,0,0-.15,1.34.92,1.39,0,0-.1.15-1.18.21,0,0-2.31,0-3.08,1.28,0,0-.1.77-1.8-.26,0,0-6.01-2.67-9.04,2.77,0,0-3.6,6.42,2.21,12.43,0,0,1.59,1.28,1.75,1.85l-.15.67v.62h25.17v-.62l-.15-.67c.15-.56,1.75-1.85,1.75-1.85,6.01-6.01,2.41-12.43,2.41-12.43ZM73.42,77.09c-1.8,3.39-4.88-1.54-4.88-1.54-3.39-6.11.46-10.22.46-10.22,2.98-3.03,4.83,0,4.83,0,.31.36-.67,2.05-.67,2.05-2.11,4.73.26,9.71.26,9.71ZM80.71,71.96s-.15,1.39-1.34.26c0,0-.92-.51-1.69.26-.72.67-.46,2.82,2.67,3.6,0,0,.87.87-.15,1.54,0,0-4.83,1.75-5.24-6.16,0,0-.15-6.63,5.8-7.65l-.05,8.17ZM89.19,71.49c-.41,7.86-5.24,6.16-5.24,6.16-1.03-.67-.15-1.54-.15-1.54,3.13-.77,3.39-2.93,2.67-3.6-.72-.72-1.69-.26-1.69-.26-1.23,1.08-1.34-.26-1.34-.26l-.05-8.17c5.96.98,5.8,7.65,5.8,7.65ZM95.61,75.55s-3.08,4.93-4.88,1.54c0,0,2.36-4.98.31-9.71,0,0-.98-1.69-.67-2.05,0,0,1.8-3.03,4.83,0-.1,0,3.8,4.11.41,10.22Z"/>
            <polygon class="cls-3" points="69.46 80.79 69.46 82.9 94.68 82.9 94.63 80.79 69.46 80.79"/>
          </g>
          <g class="cls-2">
            <path class="cls-3" d="M163.61,50.13c-3.75,16.85-15,19.72-15,19.72-1.23-4.37,4.73-18.39,4.73-18.39,12.69-26.45-2.21-36.62-2.21-36.62,7.09,15.97,0,27.38,0,27.38C138.39,3.18,116.36.1,116.36.1c21.42,10.37,27.89,39.09,27.89,39.09,3.13,11.09-2.72,20.9-2.72,20.9-3.75-.31-7.14-16.02-7.14-16.02-7.14-26.76-15.92-23.06-15.92-23.06,11.2,4.62,10.89,27.68,10.89,27.68-7.19,0-16.33-11.97-16.33-11.97-2.52,4.62,22.19,26.76,22.19,26.76,2.11,4.01,0,6.42,0,6.42-2.52,5.19-13.41,8.99-13.41,8.99-7.55,3.08-8.78-.62-8.78-.62-1.44-13.92-10.07-16.13-10.07-16.13,5.34,5.34,5.29,12.99,5.29,12.99.56,5.86-11.35,11.76-11.35,11.76-2,.77-3.34,1.49-4.16,2.16h0c-3.85,1.85-7.34,2.47-10.58,2.41v-.05c-3.29.05-6.83-.51-10.73-2.41h-.05c-.77-.77-2.16-1.69-4.31-2.67,0,0-12.12-5.39-11.56-11.3,0,0-.87-6.73,4.47-12.89,0,0-7.76,2.11-9.19,16.02,0,0-1.23,3.7-8.78.62,0,0-10.89-3.85-13.41-8.99,0,0-2.11-2.41,0-6.42,0,0,24.7-22.14,22.19-26.76,0,0-9.14,11.97-16.33,11.97,0,0-.31-23.06,10.89-27.68,0,0-8.78-3.7-15.92,23.06,0,0-3.34,15.72-7.14,16.02,0,0-5.91-9.86-2.72-20.9,0,0,6.42-28.71,27.89-39.09,0,0-21.98,3.08-34.77,42.12,0,0-7.09-11.4,0-27.38,0,0-14.95,10.17-2.21,36.62,0,0,6.01,14.02,4.73,18.39,0,0-11.25-2.88-15-19.72,0,0-4.01,18.49,26.09,30.2,0,0,22.09,6.78,33.74,14.54,0,0,7.29,9.91-1.8,5.55-7.34-3.54-15.87-7.91-21.26-11.15-5.44-3.24,6.01,20.03,22.5,23.16,0,0,4.67,12.84,6.27,19.57,0,0,3.54,7.4,2.67,15.97,0,0,5.86,16.13,13.71,16.18h0c7.96.15,13.87-16.18,13.87-16.18-1.03-9.3,2.67-15.97,2.67-15.97,1.13-6.21,6.11-19.77,6.11-19.77,17-2.67,28.09-26.19,22.65-22.96-5.44,3.24-13.97,7.6-21.26,11.15-9.35,4.52-1.9-5.65-1.9-5.65v-.05c11.76-7.7,33.49-14.38,33.49-14.38,29.89-11.66,25.89-30.1,25.89-30.1Z"/>
            <path class="cls-3" d="M98.43,65.18c-3.03-5.44-9.04-2.77-9.04-2.77-1.69,1.03-1.8.26-1.8.26-.77-1.28-3.08-1.28-3.08-1.28-1.08-.05-1.18-.21-1.18-.21,1.08-.05.92-1.39.92-1.39-.05-.82-1.08-1.08-1.08-1.08-.56-.21-.51-.87-.51-.87v-.82l1.64.67v-2.26l-1.69.36.41-1.64-1.08.26-1.08-.26.41,1.64-1.69-.36v2.26l1.64-.67v.82s.05.67-.51.87c0,0-1.03.26-1.08,1.08,0,0-.15,1.34.92,1.39,0,0-.1.15-1.18.21,0,0-2.31,0-3.08,1.28,0,0-.1.77-1.8-.26,0,0-6.01-2.67-9.04,2.77,0,0-3.6,6.42,2.21,12.43,0,0,1.59,1.28,1.75,1.85l-.15.67v.62h25.17v-.62l-.15-.67c.15-.56,1.75-1.85,1.75-1.85,6.01-6.01,2.41-12.43,2.41-12.43ZM73.42,77.09c-1.8,3.39-4.88-1.54-4.88-1.54-3.39-6.11.46-10.22.46-10.22,2.98-3.03,4.83,0,4.83,0,.31.36-.67,2.05-.67,2.05-2.11,4.73.26,9.71.26,9.71ZM80.71,71.96s-.15,1.39-1.34.26c0,0-.92-.51-1.69.26-.72.67-.46,2.82,2.67,3.6,0,0,.87.87-.15,1.54,0,0-4.83,1.75-5.24-6.16,0,0-.15-6.63,5.8-7.65l-.05,8.17ZM89.19,71.49c-.41,7.86-5.24,6.16-5.24,6.16-1.03-.67-.15-1.54-.15-1.54,3.13-.77,3.39-2.93,2.67-3.6-.72-.72-1.69-.26-1.69-.26-1.23,1.08-1.34-.26-1.34-.26l-.05-8.17c5.96.98,5.8,7.65,5.8,7.65ZM95.61,75.55s-3.08,4.93-4.88,1.54c0,0,2.36-4.98.31-9.71,0,0-.98-1.69-.67-2.05,0,0,1.8-3.03,4.83,0-.1,0,3.8,4.11.41,10.22Z"/>
            <polygon class="cls-3" points="69.46 80.79 69.46 82.9 94.68 82.9 94.63 80.79 69.46 80.79"/>
          </g>
        </g>
      </g>
    </g>
  </g>
</svg>