<?xml version="1.0" encoding="UTF-8"?>
<svg id="Layer_2" data-name="Layer 2" xmlns="http://www.w3.org/2000/svg" viewBox="0 0 439.55 156.54">
  <defs>
    <style>
      .cls-1 {
        fill: #fff;
      }

      .cls-1, .cls-2 {
        stroke-width: 0px;
      }

      .cls-3 {
        fill: none;
        stroke: #e8e8e8;
        stroke-miterlimit: 10;
      }

      .cls-2 {
        fill: #e8e8e8;
      }
    </style>
  </defs>
  <g id="main_design" data-name="main design">
    <g>
      <g>
        <path class="cls-2" d="M37.89,56.31c-.47,0-.83.13-1.09.38-.26.26-.45.6-.58,1.02-.13.43-.2.88-.22,1.34s-.03.94-.03,1.41v35.39c0,.43.01.89.03,1.38.02.49.1.94.22,1.34.13.41.32.75.58,1.02.26.28.62.42,1.09.42v.77h-9.47v-.77c.47,0,.83-.13,1.09-.38s.44-.6.54-1.02c.11-.43.17-.88.19-1.38.02-.49.03-.95.03-1.38v-18.5H7.55v18.5c0,.43,0,.89.03,1.38.02.49.08.94.19,1.34.11.41.29.75.54,1.02s.62.42,1.09.42v.77H0v-.77c.47,0,.83-.13,1.09-.38.26-.26.44-.6.54-1.02.11-.43.17-.88.19-1.38.02-.49.03-.95.03-1.38v-35.39c0-.47-.01-.94-.03-1.41s-.09-.92-.19-1.34c-.11-.43-.29-.77-.54-1.02-.26-.26-.62-.38-1.09-.38v-.77h9.41v.77c-.47,0-.83.13-1.09.38s-.44.6-.54,1.02c-.11.43-.17.88-.19,1.34s-.03.94-.03,1.41v15.87h22.72v-15.87c0-.47-.01-.94-.03-1.41-.02-.47-.09-.92-.19-1.34-.11-.43-.29-.77-.54-1.02s-.62-.38-1.09-.38v-.77h9.47v.77Z"/>
        <path class="cls-2" d="M50.88,56.31c-.47,0-.83.13-1.09.38s-.44.6-.54,1.02c-.11.43-.17.88-.19,1.34s-.03.94-.03,1.41v35.39c0,.43,0,.89.03,1.38.02.49.08.94.19,1.34.11.41.29.75.54,1.02s.62.42,1.09.42v.77h-9.41v-.77c.47,0,.83-.13,1.09-.38.26-.26.44-.6.54-1.02.11-.43.17-.88.19-1.38.02-.49.03-.95.03-1.38v-35.39c0-.47-.01-.94-.03-1.41s-.09-.92-.19-1.34c-.11-.43-.29-.77-.54-1.02-.26-.26-.62-.38-1.09-.38v-.77h9.41v.77Z"/>
        <path class="cls-2" d="M90.24,98.62l.7.7c-.34.47-.93.83-1.76,1.09s-1.78.38-2.85.38-1.97-.39-2.85-1.18c-.88-.79-1.31-1.99-1.31-3.62v-1.54c0-.85.02-1.77.06-2.75v-6.85c0-1.07-.21-2.04-.64-2.91-.43-.87-1.17-1.59-2.24-2.14-1.07-.55-2.69-.83-4.86-.83h-12.35v16.9c0,.43,0,.89.03,1.38.02.49.08.95.19,1.38.11.43.29.77.54,1.02.26.26.62.38,1.09.38v.77h-9.41v-.77c.47,0,.83-.13,1.09-.38s.44-.6.54-1.02c.11-.43.17-.88.19-1.38.02-.49.03-.95.03-1.38v-35.33c0-.47-.01-.95-.03-1.44-.02-.49-.09-.94-.19-1.34-.11-.41-.29-.75-.54-1.02-.26-.28-.62-.42-1.09-.42v-.77h9.02c1.15,0,2.31.01,3.49.03,1.17.02,2.25.03,3.23.03h4.03c4.52,0,8.06.93,10.62,2.78,2.56,1.86,3.84,4.81,3.84,8.86,0,1.45-.29,2.79-.86,4.03-.58,1.24-1.34,2.34-2.3,3.3-.96.96-2.06,1.75-3.3,2.37-1.24.62-2.54,1.06-3.9,1.31-.09,0-.12.02-.1.06.02.04.05.06.1.06,2.86.09,5.12.78,6.78,2.08,1.66,1.3,2.54,3.53,2.62,6.69l.06,8.58v.8c0,.36.04.73.13,1.09.08.36.22.68.42.96.19.28.5.42.93.42.34,0,.64-.13.9-.38h-.06ZM62.14,78.14h11.01c1.11,0,2.25-.1,3.42-.29,1.17-.19,2.24-.62,3.2-1.28.96-.66,1.74-1.61,2.34-2.85.6-1.24.9-2.9.9-4.99,0-1.79-.25-3.46-.74-4.99-.49-1.54-1.2-2.85-2.11-3.94-.92-1.09-2.03-1.94-3.33-2.56-1.3-.62-2.76-.93-4.38-.93h-10.3v21.82Z"/>
        <path class="cls-2" d="M112.45,76.54c1.28.51,2.57,1.17,3.87,1.98,1.3.81,2.48,1.77,3.55,2.88,1.07,1.11,1.94,2.36,2.62,3.74.68,1.39,1.02,2.91,1.02,4.58,0,2.22-.45,4.08-1.34,5.57-.9,1.49-2.05,2.7-3.46,3.62-1.41.92-2.98,1.58-4.7,1.98-1.73.41-3.42.61-5.09.61-3.24,0-6.26-.57-9.06-1.7-2.79-1.13-5.05-2.66-6.75-4.58l3.52-6.78.58.32c-.51,1.45-.57,2.89-.16,4.32.41,1.43,1.15,2.72,2.24,3.87,1.09,1.15,2.45,2.08,4.1,2.78s3.49,1.06,5.54,1.06c2.94,0,5.27-.76,6.98-2.27,1.71-1.51,2.56-3.42,2.56-5.73,0-2.13-.43-3.91-1.28-5.34s-1.85-2.6-2.98-3.52c-1.13-.92-2.26-1.62-3.39-2.11-1.13-.49-2-.86-2.59-1.12-.68-.3-1.34-.6-1.98-.9-.51-.21-1.04-.44-1.57-.67-.53-.23-.97-.42-1.31-.54-.9-.38-1.88-.9-2.94-1.54-1.07-.64-2.06-1.46-2.98-2.46-.92-1-1.68-2.19-2.27-3.55-.6-1.37-.83-2.94-.7-4.74.08-1.15.38-2.4.9-3.74.51-1.34,1.31-2.59,2.4-3.74,1.09-1.15,2.46-2.1,4.13-2.85,1.66-.75,3.65-1.12,5.95-1.12s4.25.26,5.95.77c1.71.51,3.14,1.09,4.29,1.73,1.32.73,2.47,1.56,3.46,2.5l-4.86,6.14-.58-.7c.55-.77.75-1.72.58-2.85-.17-1.13-.63-2.22-1.38-3.26-.75-1.04-1.75-1.93-3.01-2.66-1.26-.72-2.7-1.09-4.32-1.09-1.15,0-2.24.2-3.26.61-1.02.41-1.95.97-2.78,1.7-.83.73-1.51,1.58-2.05,2.56-.53.98-.86,2.03-.99,3.14-.21,2.05.21,4.01,1.28,5.89,1.07,1.88,2.77,3.35,5.12,4.42,1.15.51,2.42,1.02,3.81,1.54,1.39.51,2.51.94,3.36,1.28Z"/>
        <path class="cls-2" d="M146.69,101.43c-2.43,0-4.88-.5-7.33-1.5-2.45-1-4.67-2.47-6.66-4.42-1.98-1.94-3.6-4.36-4.83-7.26-1.24-2.9-1.86-6.25-1.86-10.05,0-4.1.7-7.63,2.11-10.59s3.15-5.41,5.22-7.33c2.07-1.92,4.3-3.34,6.69-4.26,2.39-.92,4.54-1.38,6.46-1.38,3.11,0,5.75.45,7.9,1.34,2.15.9,3.91,1.88,5.28,2.94,1.62,1.28,2.94,2.73,3.97,4.35l-8.64,6.08-.51-.64c.9-.9,1.47-2.08,1.73-3.55.26-1.47.13-2.91-.38-4.32-.51-1.41-1.45-2.61-2.82-3.62-1.37-1-3.24-1.5-5.63-1.5-2.82,0-5.18.69-7.1,2.08-1.92,1.39-3.47,3.17-4.64,5.34-1.17,2.18-2.02,4.59-2.53,7.23-.51,2.65-.77,5.23-.77,7.74,0,3.37.42,6.43,1.25,9.18s1.95,5.1,3.36,7.04c1.41,1.94,3.04,3.45,4.9,4.51,1.86,1.07,3.79,1.6,5.79,1.6,1.54,0,2.98-.46,4.32-1.38,1.34-.92,2.56-2.05,3.65-3.39,1.09-1.34,2.01-2.76,2.75-4.26.75-1.49,1.27-2.84,1.57-4.03l4.22,1.73c-.38,1.02-1.02,2.24-1.92,3.65-.9,1.41-2.06,2.75-3.49,4.03-1.43,1.28-3.14,2.37-5.12,3.26-1.98.9-4.3,1.34-6.94,1.34Z"/>
        <path class="cls-2" d="M204.48,56.31c-.47,0-.83.13-1.09.38-.26.26-.45.6-.58,1.02-.13.43-.2.88-.22,1.34s-.03.94-.03,1.41v35.39c0,.43.01.89.03,1.38.02.49.1.94.22,1.34.13.41.32.75.58,1.02.26.28.62.42,1.09.42v.77h-9.47v-.77c.47,0,.83-.13,1.09-.38s.44-.6.54-1.02c.11-.43.17-.88.19-1.38.02-.49.03-.95.03-1.38v-18.5h-22.72v18.5c0,.43,0,.89.03,1.38.02.49.08.94.19,1.34.11.41.29.75.54,1.02s.62.42,1.09.42v.77h-9.41v-.77c.47,0,.83-.13,1.09-.38.26-.26.44-.6.54-1.02.11-.43.17-.88.19-1.38.02-.49.03-.95.03-1.38v-35.39c0-.47-.01-.94-.03-1.41s-.09-.92-.19-1.34c-.11-.43-.29-.77-.54-1.02-.26-.26-.62-.38-1.09-.38v-.77h9.41v.77c-.47,0-.83.13-1.09.38s-.44.6-.54,1.02c-.11.43-.17.88-.19,1.34s-.03.94-.03,1.41v15.87h22.72v-15.87c0-.47-.01-.94-.03-1.41-.02-.47-.09-.92-.19-1.34-.11-.43-.29-.77-.54-1.02s-.62-.38-1.09-.38v-.77h9.47v.77Z"/>
        <path class="cls-2" d="M247.49,77.37v5.06c0,2.22-.44,4.45-1.31,6.69-.88,2.24-2.11,4.28-3.71,6.11-1.6,1.83-3.52,3.33-5.76,4.48-2.24,1.15-4.75,1.73-7.52,1.73-3.93,0-7.25-.69-9.98-2.08-2.73-1.39-4.94-3.19-6.62-5.41-1.69-2.22-2.91-4.7-3.68-7.46-.77-2.75-1.15-5.49-1.15-8.22,0-4.1.69-7.64,2.08-10.62,1.39-2.99,3.1-5.44,5.15-7.36s4.25-3.34,6.59-4.26c2.35-.92,4.48-1.38,6.4-1.38,3.33,0,6.09.45,8.29,1.34,2.2.9,3.98,1.88,5.34,2.94,1.58,1.28,2.84,2.73,3.78,4.35l-8.64,6.08-.51-.64c1.24-1.36,1.89-2.8,1.95-4.32.06-1.51-.29-2.9-1.06-4.16-.77-1.26-1.88-2.3-3.33-3.14-1.45-.83-3.12-1.25-4.99-1.25-2.3,0-4.37.6-6.21,1.79-1.83,1.19-3.38,2.82-4.64,4.86-1.26,2.05-2.22,4.41-2.88,7.07-.66,2.67-.99,5.47-.99,8.42,0,3.37.39,6.44,1.18,9.22.79,2.77,1.86,5.14,3.2,7.1,1.34,1.96,2.91,3.49,4.7,4.58s3.71,1.63,5.76,1.63,3.94-.45,5.54-1.34c1.6-.9,2.93-2.12,4-3.68,1.07-1.56,1.87-3.41,2.4-5.57s.8-4.51.8-7.07v-4.48h-13.63v-1.02h19.46Z"/>
        <path class="cls-2" d="M283.97,98.04c.34.73.74,1.21,1.18,1.44s1.03.37,1.76.42v.9h-13.38v-.9c.51,0,1-.02,1.47-.06.38-.08.77-.19,1.15-.32s.66-.32.83-.58c.3-.47.42-.98.35-1.54-.06-.55-.2-1.07-.42-1.54-.34-.94-.91-2.4-1.7-4.38-.79-1.98-1.67-4.21-2.66-6.69h-17.92c-.55,1.41-1.08,2.74-1.57,4-.49,1.26-.93,2.38-1.31,3.36s-.7,1.81-.96,2.5-.43,1.13-.51,1.34c-.17.43-.3.91-.38,1.44-.09.53,0,.99.26,1.38.47.77,1.36,1.15,2.69,1.15h.45v.83h-7.87v-.96c.51-.08,1.14-.35,1.89-.8.75-.45,1.38-1.29,1.89-2.53.26-.64.69-1.73,1.31-3.26.62-1.54,1.32-3.32,2.11-5.34.79-2.03,1.65-4.23,2.59-6.62.94-2.39,1.88-4.78,2.82-7.17,2.18-5.63,4.59-11.82,7.23-18.56h1.22l17.47,42.5ZM272.19,83.83c-.98-2.52-1.96-5.06-2.94-7.62-.98-2.56-1.9-4.91-2.75-7.04-.98-2.47-1.92-4.86-2.82-7.17-.94,2.35-1.9,4.76-2.88,7.23-.85,2.13-1.78,4.48-2.78,7.04-1,2.56-2,5.08-2.98,7.55h17.15Z"/>
        <path class="cls-2" d="M323.96,98.62l.7.7c-.34.47-.93.83-1.76,1.09s-1.78.38-2.85.38-1.97-.39-2.85-1.18c-.88-.79-1.31-1.99-1.31-3.62v-1.54c0-.85.02-1.77.06-2.75v-6.85c0-1.07-.21-2.04-.64-2.91-.43-.87-1.17-1.59-2.24-2.14-1.07-.55-2.69-.83-4.86-.83h-12.35v16.9c0,.43,0,.89.03,1.38.02.49.08.95.19,1.38.11.43.29.77.54,1.02.26.26.62.38,1.09.38v.77h-9.41v-.77c.47,0,.83-.13,1.09-.38s.44-.6.54-1.02c.11-.43.17-.88.19-1.38.02-.49.03-.95.03-1.38v-35.33c0-.47-.01-.95-.03-1.44-.02-.49-.09-.94-.19-1.34-.11-.41-.29-.75-.54-1.02-.26-.28-.62-.42-1.09-.42v-.77h9.02c1.15,0,2.31.01,3.49.03,1.17.02,2.25.03,3.23.03h4.03c4.52,0,8.06.93,10.62,2.78,2.56,1.86,3.84,4.81,3.84,8.86,0,1.45-.29,2.79-.86,4.03-.58,1.24-1.34,2.34-2.3,3.3-.96.96-2.06,1.75-3.3,2.37-1.24.62-2.54,1.06-3.9,1.31-.09,0-.12.02-.1.06.02.04.05.06.1.06,2.86.09,5.12.78,6.78,2.08,1.66,1.3,2.54,3.53,2.62,6.69l.06,8.58v.8c0,.36.04.73.13,1.09.08.36.22.68.42.96.19.28.5.42.93.42.34,0,.64-.13.9-.38h-.06ZM295.87,78.14h11.01c1.11,0,2.25-.1,3.42-.29,1.17-.19,2.24-.62,3.2-1.28.96-.66,1.74-1.61,2.34-2.85.6-1.24.9-2.9.9-4.99,0-1.79-.25-3.46-.74-4.99-.49-1.54-1.2-2.85-2.11-3.94-.92-1.09-2.03-1.94-3.33-2.56-1.3-.62-2.76-.93-4.38-.93h-10.3v21.82Z"/>
        <path class="cls-2" d="M363.96,65.08h-1.15c-.17-.6-.57-1.39-1.18-2.37-.62-.98-1.38-1.94-2.27-2.88-.9-.94-1.88-1.75-2.94-2.43-1.07-.68-2.16-1.02-3.26-1.02h-5.5v39.49c0,.43,0,.89.03,1.38.02.49.08.94.19,1.34.11.41.29.75.54,1.02.26.28.62.42,1.09.42v.77h-9.41v-.77c.47,0,.83-.13,1.09-.38s.44-.6.54-1.02c.11-.43.17-.88.19-1.38.02-.49.03-.95.03-1.38v-39.49h-5.5c-1.07,0-2.14.34-3.23,1.02s-2.08,1.49-2.98,2.43c-.9.94-1.65,1.9-2.27,2.88-.62.98-1.01,1.77-1.18,2.37h-1.15l2.05-9.54h34.3l1.98,9.54Z"/>
        <path class="cls-2" d="M401.15,91.26l-1.98,9.54h-33.34v-.77c.47,0,.83-.14,1.09-.42s.44-.62.54-1.02c.11-.41.17-.85.19-1.34.02-.49.03-.95.03-1.38v-35.39c0-.47-.01-.94-.03-1.41-.02-.47-.09-.92-.19-1.34-.11-.43-.29-.77-.54-1.02s-.62-.38-1.09-.38v-.77l31.81-.06,1.98,9.54h-1.15c-.17-.6-.57-1.39-1.18-2.37-.62-.98-1.38-1.95-2.27-2.91-.9-.96-1.88-1.78-2.94-2.46-1.07-.68-2.16-1.02-3.26-1.02h-15.42v20.1h11.9c.72,0,1.36-.18,1.92-.54.55-.36,1.01-.85,1.38-1.47.36-.62.64-1.31.83-2.08.19-.77.29-1.54.29-2.3h1.15v13.82h-1.15c0-.77-.1-1.54-.29-2.3-.19-.77-.46-1.45-.8-2.05-.34-.6-.79-1.09-1.34-1.47-.55-.38-1.19-.58-1.92-.58h-11.97v22.66h16.96c1.49,0,2.8-.34,3.94-1.02,1.13-.68,2.09-1.49,2.88-2.43.79-.94,1.42-1.91,1.89-2.91.47-1,.79-1.8.96-2.4h1.15Z"/>
        <path class="cls-2" d="M439.55,55.54v.77c-.47,0-.83.13-1.09.38s-.44.6-.54,1.02c-.11.43-.17.88-.19,1.34s-.03.94-.03,1.41v40.32h-1.15l-29.7-42.18v37.25c0,.43,0,.89.03,1.38.02.49.08.95.19,1.38.11.43.29.77.54,1.02.26.26.62.38,1.09.38v.77h-4.93v-.77c.47,0,.83-.13,1.09-.38.26-.26.44-.6.54-1.02.11-.43.17-.88.19-1.38.02-.49.03-.95.03-1.38v-35.39c0-.47-.01-.94-.03-1.41s-.09-.92-.19-1.34c-.11-.43-.29-.77-.54-1.02-.26-.26-.62-.38-1.09-.38v-.77h8.45l24.32,33.66v-28.74c0-.47-.01-.94-.03-1.41-.02-.47-.09-.92-.19-1.34-.11-.43-.29-.77-.54-1.02s-.62-.38-1.09-.38v-.77h4.86Z"/>
      </g>
      <g>
        <path class="cls-2" d="M150.21,7.06v.58c-.34.05-.73.21-1.17.49-.44.27-.82.79-1.13,1.54-.21.52-.6,1.5-1.17,2.92-.57,1.43-1.22,3.08-1.95,4.93-.73,1.86-1.48,3.79-2.26,5.79-1.35,3.43-2.83,7.2-4.45,11.31h-.7l-6.12-14.82c-.68,1.74-1.36,3.49-2.05,5.25-.69,1.75-1.32,3.35-1.89,4.78-.65,1.66-1.27,3.26-1.87,4.8h-.7l-10.65-25.9c-.23-.44-.48-.73-.74-.88-.26-.14-.61-.23-1.05-.25v-.55h8.15v.51c-.31,0-.61.03-.9.08-.23.03-.46.08-.68.16s-.4.21-.53.39c-.18.29-.25.6-.21.94s.11.65.21.94c.18.42.44,1.03.76,1.85.33.82.69,1.75,1.09,2.81.4,1.05.84,2.18,1.31,3.37.47,1.2.94,2.38,1.4,3.55,1.07,2.78,2.24,5.8,3.51,9.05.47-1.17.96-2.39,1.48-3.67.44-1.09.94-2.32,1.48-3.68.55-1.37,1.09-2.75,1.64-4.15l-4.33-10.45c-.21-.44-.44-.73-.7-.88-.26-.14-.61-.23-1.05-.25v-.55h12.64v.58c-.34.05-.73.21-1.17.49-.44.27-.82.79-1.13,1.54-.18.42-.47,1.12-.86,2.11s-.85,2.16-1.37,3.51c.31.78.64,1.6.98,2.46.34.86.68,1.72,1.01,2.59.34.87.67,1.73.99,2.57.33.85.64,1.66.96,2.44.7,1.79,1.39,3.58,2.07,5.34,1.43-3.59,2.73-6.85,3.9-9.79.49-1.25.98-2.48,1.46-3.69.48-1.21.92-2.32,1.33-3.33s.73-1.87,1-2.57c.26-.7.43-1.14.51-1.33.1-.26.18-.55.23-.88.05-.33,0-.6-.16-.84-.26-.47-.82-.7-1.68-.7h-.27v-.51h4.84ZM130.98,10.06c.18.42.43,1.03.74,1.83.31.81.66,1.72,1.05,2.73.49-1.2.9-2.22,1.23-3.06.32-.84.53-1.37.6-1.58.1-.26.18-.55.23-.88s0-.6-.16-.84c-.13-.23-.33-.41-.59-.53s-.65-.18-1.17-.18c-.1,0-.25,0-.43.02-.18.01-.37.04-.57.08s-.38.1-.57.2c-.18.09-.31.2-.39.33-.21.29-.29.6-.23.94.05.34.13.65.23.94Z"/>
        <path class="cls-2" d="M169.24,32.96c.21.44.45.73.72.88.27.14.63.23,1.07.25v.55h-8.15v-.55c.31,0,.61-.01.9-.04.23-.05.47-.12.7-.2.23-.08.4-.19.51-.35.18-.29.25-.6.21-.94-.04-.34-.12-.65-.25-.94-.21-.57-.55-1.46-1.03-2.67-.48-1.21-1.02-2.57-1.62-4.08h-10.92c-.34.86-.66,1.67-.96,2.44-.3.77-.57,1.45-.8,2.05-.23.6-.43,1.11-.58,1.52-.16.42-.26.69-.31.82-.1.26-.18.55-.23.88-.05.33,0,.6.16.84.29.47.83.7,1.64.7h.27v.51h-4.8v-.58c.31-.05.7-.21,1.15-.49.46-.27.84-.79,1.15-1.54.16-.39.42-1.05.8-1.99.38-.94.81-2.02,1.29-3.26.48-1.23,1.01-2.58,1.58-4.04l1.72-4.37c1.33-3.43,2.79-7.2,4.41-11.31h.74l10.65,25.9ZM162.07,24.3c-.6-1.53-1.2-3.08-1.79-4.64-.6-1.56-1.16-2.99-1.68-4.29-.6-1.51-1.17-2.96-1.72-4.37-.57,1.43-1.16,2.9-1.75,4.41-.52,1.3-1.09,2.73-1.7,4.29-.61,1.56-1.22,3.09-1.81,4.6h10.45Z"/>
        <path class="cls-2" d="M171.89,34.63v-.47c.29,0,.51-.08.66-.25.16-.17.27-.38.33-.62.06-.25.1-.52.12-.82.01-.3.02-.58.02-.84V10.06c0-.29,0-.57-.02-.86-.01-.29-.05-.56-.12-.82-.07-.26-.18-.47-.33-.62-.16-.16-.38-.23-.66-.23v-.47h5.73v.47c-.29,0-.51.08-.66.23s-.27.36-.33.62c-.07.26-.1.53-.12.82-.01.29-.02.57-.02.86v24.14h7.14c.68,0,1.34-.21,1.99-.62.65-.42,1.25-.92,1.79-1.5s1.01-1.18,1.38-1.77c.38-.6.62-1.08.72-1.44h.7l-1.21,5.81-17.12-.04Z"/>
        <path class="cls-2" d="M201.65,7.06c1.64,0,3.22.27,4.74.82,1.52.55,2.87,1.38,4.04,2.52s2.11,2.55,2.83,4.25c.71,1.7,1.07,3.72,1.07,6.06,0,1.66-.26,3.33-.78,4.99-.52,1.66-1.32,3.16-2.4,4.48-1.08,1.33-2.45,2.4-4.11,3.22-1.66.82-3.64,1.23-5.93,1.23h-9.71v-.47c.29,0,.51-.08.66-.25.16-.17.27-.38.33-.62.06-.25.1-.52.12-.82.01-.3.02-.58.02-.84V10.06c0-.29,0-.57-.02-.86-.01-.29-.05-.56-.12-.82-.07-.26-.18-.47-.33-.62-.16-.16-.38-.23-.66-.23v-.47h10.26ZM200.05,34.01c1.22,0,2.47-.22,3.74-.66,1.27-.44,2.43-1.18,3.47-2.2s1.88-2.39,2.54-4.1c.65-1.7.98-3.81.98-6.34,0-2.16-.27-4.06-.82-5.69-.55-1.64-1.29-3.02-2.24-4.13-.95-1.12-2.06-1.96-3.33-2.54-1.27-.57-2.64-.86-4.09-.86h-4.29v26.52h4.06Z"/>
        <path class="cls-2" d="M237.84,30.65c.34.47.67.91.99,1.33.33.42.64.79.96,1.11.31.33.61.58.9.78.29.2.56.29.82.29v.47h-3.08c-.57,0-1.05-.05-1.42-.16-.38-.1-.71-.27-.99-.49-.29-.22-.57-.49-.84-.82-.27-.32-.58-.71-.92-1.15-.96-1.48-1.9-2.91-2.81-4.29-.39-.57-.78-1.16-1.17-1.75-.39-.6-.77-1.18-1.15-1.75-.38-.57-.73-1.1-1.07-1.6s-.62-.91-.86-1.25c-.34-.49-.7-.84-1.07-1.03-.38-.19-.77-.29-1.19-.29-.68,0-1.35.21-2.03.64-.68.43-1.35.93-2.03,1.5v9.44c0,.26,0,.54.02.84.01.3.05.57.12.82.06.25.17.46.33.62.16.17.38.25.66.25v.47h-5.73v-.47c.29,0,.51-.08.66-.23.16-.16.27-.36.33-.62.06-.26.1-.54.12-.84.01-.3.02-.58.02-.84V10.06c0-.29,0-.57-.02-.86-.01-.29-.05-.56-.12-.82-.07-.26-.18-.47-.33-.62-.16-.16-.38-.23-.66-.23v-.47h5.73v.47c-.29,0-.51.08-.66.23s-.27.36-.33.62c-.07.26-.1.53-.12.82-.01.29-.02.57-.02.86v11.43c1.95-1.87,3.76-3.61,5.42-5.23.7-.68,1.42-1.37,2.14-2.07.73-.7,1.42-1.37,2.07-1.99.65-.62,1.23-1.18,1.74-1.68s.9-.87,1.19-1.13c.13-.13.26-.3.39-.51.13-.21.19-.42.19-.62s-.1-.39-.29-.55c-.2-.16-.57-.23-1.11-.23v-.43h5.46v.43c-.94.05-1.74.33-2.4.82-.66.49-1.41,1.16-2.24,1.99-.21.21-.5.49-.88.86-.38.36-.81.77-1.29,1.23-.48.46-.99.94-1.52,1.44s-1.07,1.02-1.62,1.54c-1.25,1.2-2.6,2.48-4.06,3.86.26-.18.65-.45,1.17-.8.52-.35,1.27-.53,2.26-.53.47,0,.9.1,1.29.29s.74.43,1.05.7c.31.27.59.57.84.88.25.31.45.58.6.82s.4.62.74,1.15c.34.53.73,1.14,1.17,1.81.44.68.9,1.39,1.38,2.15s.94,1.46,1.37,2.12.81,1.25,1.15,1.77c.34.52.58.87.74,1.05Z"/>
        <path class="cls-2" d="M254.85,34.71c-1.56,0-3.1-.3-4.62-.9-1.52-.6-2.89-1.48-4.09-2.65s-2.19-2.62-2.94-4.35c-.75-1.73-1.13-3.72-1.13-5.99s.38-4.26,1.15-5.99c.77-1.73,1.77-3.18,3.02-4.35s2.67-2.05,4.27-2.65c1.6-.6,3.22-.9,4.86-.9s3.2.3,4.78.9c1.57.6,2.98,1.48,4.23,2.65s2.26,2.62,3.02,4.35c.77,1.73,1.15,3.72,1.15,5.99s-.42,4.42-1.27,6.16-1.9,3.18-3.16,4.33c-1.26,1.14-2.63,2-4.12,2.55-1.48.56-2.86.84-4.13.84h-1.01ZM255.28,7.49c-1.27,0-2.47.34-3.59,1.03-1.12.69-2.09,1.63-2.91,2.83-.82,1.2-1.46,2.61-1.93,4.23-.47,1.62-.7,3.37-.7,5.25,0,1.51.24,3.05.72,4.62.48,1.57,1.13,3,1.95,4.29.82,1.29,1.79,2.34,2.91,3.16,1.12.82,2.3,1.23,3.55,1.23s2.42-.36,3.53-1.07,2.07-1.68,2.91-2.89c.83-1.21,1.49-2.62,1.99-4.25.49-1.62.74-3.33.74-5.13s-.23-3.61-.7-5.23c-.47-1.61-1.12-3.02-1.95-4.21-.83-1.2-1.8-2.14-2.91-2.83-1.11-.69-2.31-1.03-3.61-1.03ZM250.01,3.86V0h3.55v3.86h-3.55ZM257.03,3.86V0h3.55v3.86h-3.55Z"/>
        <path class="cls-2" d="M292.25,7.06v.47c-.29,0-.51.08-.66.23s-.27.36-.33.62c-.06.26-.1.53-.12.82-.01.29-.02.57-.02.86v24.57h-.7l-18.1-25.7v22.7c0,.26,0,.54.02.84s.05.58.12.84c.06.26.18.47.33.62.16.16.38.23.66.23v.47h-3v-.47c.29,0,.51-.08.66-.23.16-.16.27-.36.33-.62.06-.26.1-.54.12-.84.01-.3.02-.58.02-.84V10.06c0-.29,0-.57-.02-.86-.01-.29-.05-.56-.12-.82-.07-.26-.18-.47-.33-.62-.16-.16-.38-.23-.66-.23v-.47h5.15l14.82,20.51V10.06c0-.29,0-.57-.02-.86-.01-.29-.05-.56-.12-.82-.07-.26-.18-.47-.33-.62-.16-.16-.38-.23-.66-.23v-.47h2.96Z"/>
        <path class="cls-2" d="M300.2,7.53c-.29,0-.51.08-.66.23-.16.16-.27.36-.33.62-.07.26-.1.53-.12.82s-.02.57-.02.86v21.57c0,.26,0,.54.02.84s.05.57.12.82c.06.25.18.46.33.62.16.17.38.25.66.25v.47h-5.73v-.47c.29,0,.51-.08.66-.23s.27-.36.33-.62c.06-.26.1-.54.12-.84.01-.3.02-.58.02-.84V10.06c0-.29,0-.57-.02-.86-.01-.29-.05-.56-.12-.82-.06-.26-.17-.47-.33-.62s-.38-.23-.66-.23v-.47h5.73v.47Z"/>
        <path class="cls-2" d="M326.45,20.36v3.08c0,1.35-.27,2.71-.8,4.08-.53,1.36-1.29,2.61-2.26,3.72s-2.14,2.03-3.51,2.73-2.89,1.05-4.58,1.05c-2.39,0-4.42-.42-6.08-1.27-1.66-.84-3.01-1.94-4.04-3.29-1.03-1.35-1.77-2.87-2.24-4.54-.47-1.68-.7-3.35-.7-5.01,0-2.5.42-4.65,1.27-6.47.84-1.82,1.89-3.31,3.14-4.48,1.25-1.17,2.59-2.03,4.02-2.59,1.43-.56,2.73-.84,3.9-.84,2.03,0,3.71.27,5.05.82s2.42,1.14,3.26,1.79c.96.78,1.73,1.66,2.3,2.65l-5.26,3.7-.31-.39c.75-.83,1.15-1.71,1.19-2.63.04-.92-.17-1.77-.64-2.53-.47-.77-1.14-1.4-2.03-1.91-.88-.51-1.9-.76-3.04-.76-1.4,0-2.67.36-3.78,1.09-1.12.73-2.06,1.72-2.83,2.96-.77,1.25-1.35,2.69-1.76,4.31-.4,1.62-.6,3.33-.6,5.13,0,2.05.24,3.93.72,5.62s1.13,3.13,1.95,4.33c.82,1.2,1.77,2.13,2.87,2.79,1.09.66,2.26.99,3.51.99s2.4-.27,3.37-.82c.97-.55,1.79-1.29,2.44-2.24.65-.95,1.14-2.08,1.46-3.39.32-1.31.49-2.75.49-4.31v-2.73h-8.31v-.62h11.86Z"/>
      </g>
      <line class="cls-3" x1=".71" y1="115.94" x2="437.71" y2="115.94"/>
      <g>
        <path class="cls-1" d="M80.41,150.92h-1.66l-4.02-13.15-4.62,13.15h-1.66l-5.8-18.08-1.81-.18c-.1-.18-.13-.31-.13-.46s.03-.28.1-.43h5.95c.08.15.1.31.1.43,0,.15-.02.26-.1.46l-2.36.2,5.15,16.4,4.65-13.21-.93-3.19-2.19-.2c-.1-.18-.13-.31-.13-.46s.03-.28.1-.43h6.43c.08.15.1.31.1.43,0,.15-.03.26-.1.46l-2.46.2,4.75,16.4,5.1-16.4-2.24-.2c-.1-.18-.13-.31-.13-.46s.03-.28.1-.43h5.42c.08.15.1.31.1.43,0,.15-.03.26-.1.46l-1.83.2-5.8,18.06Z"/>
        <path class="cls-1" d="M90.27,150.16l1.91-.28v-11.32l-1.88-.15c-.08-.13-.1-.26-.1-.38s.03-.26.08-.38c1.11-.08,2.41-.15,3.52-.26-.08.79-.1,1.56-.1,2.35v10.14l1.88.28c.1.15.12.28.12.38,0,.13-.03.26-.1.38h-5.3c-.08-.13-.1-.28-.1-.41,0-.1.03-.23.08-.36ZM91.53,133.71c0-.71.53-1.33,1.28-1.33s1.25.61,1.25,1.33-.53,1.3-1.25,1.3-1.28-.61-1.28-1.3Z"/>
        <path class="cls-1" d="M98.61,150.16l1.91-.28v-11.32l-1.78-.15c-.08-.13-.1-.26-.1-.38s.02-.26.08-.38c1.13-.08,2.24-.15,3.44-.26-.02.87-.08,1.74-.15,2.61h.15c1.53-1.69,2.64-2.61,4.37-2.61.05.2.08.43.08.66,0,.33-.05.79-.18,1.2-1.78,0-2.54.26-4.39,1.76v8.86l2.01.28c.1.15.13.28.13.38,0,.13-.03.26-.1.38h-5.42c-.08-.13-.1-.28-.1-.41,0-.1.02-.23.08-.36Z"/>
        <path class="cls-1" d="M109.18,137.77l1.88-.13.73-2.91h.78v2.91h3.64v1.1h-3.64v8.43c0,2.3.38,2.78,1.51,2.78,1.05,0,1.81-.38,2.49-.72.3.33.33.66.25.95-.88.66-2.16,1-3.04,1-1.86,0-2.71-.89-2.71-3.86v-8.58l-1.88-.18c-.05-.15-.08-.28-.08-.43,0-.1.03-.2.08-.36Z"/>
        <path class="cls-1" d="M120.33,146.99l.6,2.4c1.36.41,2.61.56,3.09.56,1.51,0,2.91-.72,2.91-2.4,0-1.51-1.56-2.09-3.21-2.68-1.98-.72-4.14-1.53-4.14-3.88s1.58-3.6,4.34-3.6c.33,0,2.51.38,3.89.77-.03,1-.08,2.17-.18,3.12h-1.11l-.2-2.27c-1.31-.26-2.11-.36-2.46-.36-1.78,0-2.89.82-2.89,2.17,0,1.66,1.71,2.2,3.47,2.84,1.93.69,3.97,1.56,3.97,3.68,0,2.43-2.21,3.86-4.47,3.86-.55,0-2.26-.23-4.45-.97-.15-1.35-.2-2.04-.28-3.22h1.11Z"/>
        <path class="cls-1" d="M131.06,131.69c0-.1.03-.23.08-.38,1.28-.13,2.11-.2,3.52-.31-.05.79-.08,1.56-.08,2.35v5.65c2.11-.79,4.22-1.61,4.6-1.61,3.01,0,3.44,1.92,3.44,4.32v8.17l1.83.28c.1.15.13.28.13.38,0,.13-.03.26-.1.38h-5.3c-.08-.13-.1-.28-.1-.41,0-.1.03-.23.08-.36l1.96-.28v-7.71c0-2.12-.1-3.42-2.08-3.42-.43,0-2.41.54-4.45,1.15v9.99l1.88.28c.1.15.12.28.12.38,0,.13-.02.26-.1.38h-5.3c-.08-.13-.1-.28-.1-.41,0-.1.03-.23.08-.36l1.91-.28v-17.65l-1.93-.15c-.05-.15-.08-.28-.08-.38Z"/>
        <path class="cls-1" d="M150.65,143.85l4.67-.71v-.89c0-2.35-.18-3.6-2.21-3.6-.48,0-1.76.18-3.04.41l-.23,2.5h-1.1c-.1-1.05-.18-2.35-.18-3.29,1.93-.43,4.17-.87,4.62-.87,2.71,0,3.64,1.18,3.64,4.6v7.89l1.73.26c.08.13.1.26.1.38s-.03.26-.1.41h-2.94l-.25-1.51c-1.23.51-3.82,1.76-4.45,1.76-1.31,0-3.31-1.17-3.31-3.6,0-1.71,1.05-3.42,3.04-3.73ZM151.12,149.9c.48,0,2.51-.71,4.19-1.38v-4.32l-3.79.69c-1.46.26-2.41.95-2.41,2.63,0,1.53.78,2.38,2.01,2.38Z"/>
        <path class="cls-1" d="M160.99,137.64c1.41-.1,1.88-.13,3.34-.26-.08.54-.08,1.69-.08,2.5v6.51c0,2.12.23,3.42,1.96,3.42.5,0,2.26-.61,4.39-1.38v-9.91l-1.76-.13c-.03-.15-.05-.26-.05-.38,0-.15.02-.28.05-.38,1.13-.08,2.21-.18,3.34-.26-.08.54-.08,1.69-.08,2.5v9.99l1.86.26c.08.13.1.26.1.38s-.03.26-.1.41h-3.01l-.3-1.58c-2.16.97-4.14,1.84-4.55,1.84-2.91,0-3.37-1.97-3.37-4.32v-8.33l-1.76-.13c-.05-.23-.05-.28-.05-.38,0-.15.02-.26.05-.38Z"/>
        <path class="cls-1" d="M178.14,146.99l.6,2.4c1.36.41,2.61.56,3.09.56,1.51,0,2.91-.72,2.91-2.4,0-1.51-1.56-2.09-3.21-2.68-1.98-.72-4.14-1.53-4.14-3.88s1.58-3.6,4.34-3.6c.33,0,2.51.38,3.89.77-.03,1-.08,2.17-.18,3.12h-1.11l-.2-2.27c-1.31-.26-2.11-.36-2.46-.36-1.78,0-2.89.82-2.89,2.17,0,1.66,1.71,2.2,3.47,2.84,1.93.69,3.97,1.56,3.97,3.68,0,2.43-2.21,3.86-4.47,3.86-.55,0-2.26-.23-4.45-.97-.15-1.35-.2-2.04-.28-3.22h1.11Z"/>
        <path class="cls-1" d="M196.83,137.64c1.41-.1,1.88-.13,3.34-.26-.08.54-.08,1.69-.08,2.5v6.51c0,2.12.23,3.42,1.96,3.42.5,0,2.26-.61,4.39-1.38v-9.91l-1.76-.13c-.03-.15-.05-.26-.05-.38,0-.15.02-.28.05-.38,1.13-.08,2.21-.18,3.34-.26-.08.54-.08,1.69-.08,2.5v9.99l1.86.26c.08.13.1.26.1.38s-.03.26-.1.41h-3.01l-.3-1.58c-2.16.97-4.14,1.84-4.55,1.84-2.91,0-3.37-1.97-3.37-4.32v-8.33l-1.76-.13c-.05-.23-.05-.28-.05-.38,0-.15.02-.26.05-.38Z"/>
        <path class="cls-1" d="M212.88,150.16l1.91-.28v-11.32l-1.88-.15c-.08-.13-.1-.26-.1-.38s.02-.26.08-.38c1.13-.08,2.39-.15,3.52-.26-.05.49-.08,1.12-.1,1.61,2.11-.79,4.22-1.61,4.6-1.61,3.01,0,3.44,1.92,3.44,4.32v8.17l1.83.28c.1.15.13.28.13.41,0,.1-.03.23-.1.36h-5.3c-.08-.13-.1-.28-.1-.41,0-.1.03-.23.08-.36l1.96-.28v-7.71c0-2.12-.1-3.42-2.08-3.42-.43,0-2.41.54-4.45,1.15v9.99l1.88.28c.1.15.12.28.12.38,0,.13-.03.26-.1.38h-5.3c-.08-.13-.1-.28-.1-.41,0-.1.02-.23.08-.36Z"/>
        <path class="cls-1" d="M236.18,131.69c0-.1.03-.23.08-.38,1.43-.15,2.11-.2,3.54-.31-.08.54-.1,1.69-.1,2.5v16.37l1.86.26c.08.13.1.26.1.38s-.03.26-.1.41h-3.06l-.25-1.51c-1.53.87-3.06,1.76-3.64,1.76-3.14,0-5.55-2.68-5.55-6.87s2.71-6.92,6.2-6.92c.53,0,1.68.36,2.94.77v-5.93l-1.93-.15c-.05-.15-.08-.28-.08-.38ZM235.15,138.69c-2.64,0-4.52,2.22-4.52,5.62,0,3.81,2.16,5.57,3.97,5.57.45,0,2.31-.72,3.59-1.35v-9.07c-1.58-.51-2.44-.77-3.04-.77Z"/>
        <path class="cls-1" d="M254.66,132.87l-2.13-.2c-.1-.18-.13-.31-.13-.46s.03-.28.1-.43h7.28c4.27,0,5.9,1.76,5.9,4.44,0,1.99-1.08,3.81-3.04,4.55,2.56.56,3.97,2.02,3.97,4.65,0,3.55-2.56,5.52-7.18,5.52h-6.93c-.08-.15-.1-.26-.1-.41,0-.18.03-.28.1-.49l2.16-.2v-16.96ZM256.22,140.35l3.59-.05c2.99-.05,4.22-1.51,4.22-4.09,0-2.07-1.23-3.09-4.24-3.19l-3.49-.13-.08,7.46ZM256.22,141.47l.08,8.3,3.49-.08c3.47-.08,5.15-1.48,5.15-4.29,0-2.04-.93-3.83-4.65-3.88l-4.07-.05Z"/>
        <path class="cls-1" d="M270.01,150.16l1.91-.28v-11.32l-1.88-.15c-.08-.13-.1-.26-.1-.38s.02-.26.08-.38c1.11-.08,2.41-.15,3.52-.26-.08.79-.1,1.56-.1,2.35v10.14l1.88.28c.1.15.12.28.12.38,0,.13-.03.26-.1.38h-5.3c-.08-.13-.1-.28-.1-.41,0-.1.02-.23.08-.36ZM271.26,133.71c0-.71.53-1.33,1.28-1.33s1.25.61,1.25,1.33-.53,1.3-1.25,1.3-1.28-.61-1.28-1.3Z"/>
        <path class="cls-1" d="M284.07,137.39c3.57,0,4.97,3.07,4.97,6.77l-9.04.54c.2,3.27,1.88,5.21,4.45,5.21,1.41,0,2.81-.43,4.04-1.2.25.23.38.54.4.92-1.51,1.07-2.99,1.56-4.55,1.56-3.82,0-5.9-2.89-5.9-6.85,0-4.29,2.51-6.95,5.63-6.95ZM287.41,143.16c0-1.94-.9-4.47-3.44-4.47s-3.84,2.32-3.97,4.96l7.41-.49Z"/>
        <path class="cls-1" d="M292.23,150.16l1.91-.28v-11.32l-1.78-.15c-.08-.13-.1-.26-.1-.38s.02-.26.08-.38c1.13-.08,2.24-.15,3.44-.26-.02.87-.08,1.74-.15,2.61h.15c1.53-1.69,2.64-2.61,4.37-2.61.05.2.08.43.08.66,0,.33-.05.79-.18,1.2-1.78,0-2.54.26-4.39,1.76v8.86l2.01.28c.1.15.13.28.13.38,0,.13-.03.26-.1.38h-5.42c-.08-.13-.1-.28-.1-.41,0-.1.03-.23.08-.36Z"/>
        <path class="cls-1" d="M303.91,150.72c-.25-.2-.33-.51-.33-.84,0-.72.2-1.79,1.18-3.52-1.21-.89-1.88-2.04-1.88-3.98,0-2.94,2.03-4.98,4.65-4.98.83,0,1.56.23,2.21.66l3.52-.77c.18.2.28.46.28.77,0,.23-.05.51-.18.79l-2.76-.1c.93,1.02,1.46,2.07,1.46,3.63,0,2.96-2.18,4.73-4.62,4.73-.7,0-1.36-.05-1.91-.31-.38.89-.68,2.02-.68,2.76h4.62c2.21,0,3.72.97,3.72,2.94,0,2.45-2.39,4.06-6.13,4.06-3.06,0-4.92-1.28-4.92-3.09,0-1.17.58-2.02,1.78-2.73ZM307.2,155.4c2.84,0,4.5-1.18,4.5-2.76,0-1.23-.7-1.71-2.24-1.71h-4.37c-1.18.69-1.53,1.43-1.53,2.27,0,1.38,1.13,2.2,3.64,2.2ZM307.42,146.02c1.98,0,3.11-1.35,3.11-3.6,0-2.76-1.53-3.86-3.11-3.86-1.38,0-3.04.77-3.04,3.86,0,2.35,1.11,3.6,3.04,3.6Z"/>
        <path class="cls-1" d="M319.4,143.85l4.67-.71v-.89c0-2.35-.18-3.6-2.21-3.6-.48,0-1.76.18-3.04.41l-.23,2.5h-1.1c-.1-1.05-.18-2.35-.18-3.29,1.93-.43,4.17-.87,4.62-.87,2.71,0,3.64,1.18,3.64,4.6v7.89l1.73.26c.08.13.1.26.1.38s-.03.26-.1.41h-2.94l-.25-1.51c-1.23.51-3.82,1.76-4.45,1.76-1.31,0-3.31-1.17-3.31-3.6,0-1.71,1.05-3.42,3.04-3.73ZM319.88,149.9c.48,0,2.51-.71,4.19-1.38v-4.32l-3.79.69c-1.46.26-2.41.95-2.41,2.63,0,1.53.78,2.38,2.01,2.38Z"/>
        <path class="cls-1" d="M330.33,150.16l1.91-.28v-11.32l-1.78-.15c-.08-.13-.1-.26-.1-.38s.02-.26.08-.38c1.13-.08,2.24-.15,3.44-.26-.02.87-.08,1.74-.15,2.61h.15c1.53-1.69,2.64-2.61,4.37-2.61.05.2.08.43.08.66,0,.33-.05.79-.18,1.2-1.78,0-2.54.26-4.39,1.76v8.86l2.01.28c.1.15.13.28.13.38,0,.13-.03.26-.1.38h-5.42c-.08-.13-.1-.28-.1-.41,0-.1.03-.23.08-.36Z"/>
        <path class="cls-1" d="M340.9,137.77l1.88-.13.73-2.91h.78v2.91h3.64v1.1h-3.64v8.43c0,2.3.38,2.78,1.51,2.78,1.05,0,1.81-.38,2.49-.72.3.33.33.66.25.95-.88.66-2.16,1-3.04,1-1.86,0-2.71-.89-2.71-3.86v-8.58l-1.88-.18c-.05-.15-.08-.28-.08-.43,0-.1.03-.2.08-.36Z"/>
        <path class="cls-1" d="M356.55,137.39c3.57,0,4.97,3.07,4.97,6.77l-9.04.54c.2,3.27,1.88,5.21,4.45,5.21,1.41,0,2.81-.43,4.04-1.2.25.23.38.54.4.92-1.51,1.07-2.99,1.56-4.55,1.56-3.82,0-5.9-2.89-5.9-6.85,0-4.29,2.51-6.95,5.63-6.95ZM359.89,143.16c0-1.94-.9-4.47-3.44-4.47s-3.84,2.32-3.97,4.96l7.41-.49Z"/>
        <path class="cls-1" d="M364.71,150.16l1.91-.28v-11.32l-1.88-.15c-.08-.13-.1-.26-.1-.38s.02-.26.08-.38c1.13-.08,2.39-.15,3.52-.26-.05.49-.08,1.12-.1,1.61,2.11-.79,4.22-1.61,4.6-1.61,3.01,0,3.44,1.92,3.44,4.32v8.17l1.83.28c.1.15.13.28.13.41,0,.1-.03.23-.1.36h-5.3c-.08-.13-.1-.28-.1-.41,0-.1.03-.23.08-.36l1.96-.28v-7.71c0-2.12-.1-3.42-2.08-3.42-.43,0-2.41.54-4.45,1.15v9.99l1.88.28c.1.15.12.28.12.38,0,.13-.03.26-.1.38h-5.3c-.08-.13-.1-.28-.1-.41,0-.1.02-.23.08-.36Z"/>
      </g>
    </g>
  </g>
</svg>