<?xml version="1.0" encoding="UTF-8"?>
<svg xmlns="http://www.w3.org/2000/svg" viewBox="0 0 1347.71 390.72">
  <defs>
    <style>
      .cls-1 {
        isolation: isolate;
      }

      .cls-2 {
        fill: #451818;
        stroke-width: 0px;
      }

      .cls-3 {
        mix-blend-mode: multiply;
      }
    </style>
  </defs>
  <g class="cls-1">
    <g id="Layer_2" data-name="Layer 2">
      <g id="main_design" data-name="main design">
        <g class="cls-3">
          <path class="cls-2" d="M316.46,82.78h-9.51c-1.41-5.15-4.67-11.95-9.77-20.42-5.11-8.46-11.36-16.74-18.75-24.83-7.4-8.09-15.5-15.08-24.3-20.97-8.81-5.88-17.79-8.83-26.94-8.83h-45.43v340.5c0,3.68.08,7.64.26,11.86.17,4.23.7,8.1,1.58,11.59.88,3.5,2.38,6.44,4.49,8.83,2.11,2.4,5.1,3.59,8.98,3.59v6.62h-77.66v-6.62c3.87,0,6.87-1.1,8.98-3.31s3.61-5.15,4.49-8.83c.88-3.67,1.4-7.63,1.58-11.87.17-4.22.26-8.18.26-11.86V7.73h-45.43c-8.81,0-17.7,2.95-26.68,8.83-8.98,5.89-17.17,12.88-24.57,20.97-7.4,8.1-13.65,16.38-18.75,24.83-5.11,8.47-8.37,15.27-9.77,20.42H0L16.91.55h283.17l16.38,82.23Z"/>
          <path class="cls-2" d="M623.4,308.49l-16.38,82.23h-275.25v-6.62c3.87,0,6.87-1.19,8.98-3.59,2.11-2.39,3.61-5.33,4.49-8.83.88-3.49,1.4-7.36,1.58-11.59.17-4.22.26-8.18.26-11.86V43.04c0-4.04-.09-8.09-.26-12.14-.18-4.04-.71-7.91-1.58-11.59-.88-3.67-2.38-6.62-4.49-8.83s-5.11-3.31-8.98-3.31V.55l262.57-.55,16.38,82.23h-9.51c-1.41-5.15-4.67-11.95-9.77-20.42-5.11-8.46-11.36-16.83-18.75-25.11-7.4-8.28-15.5-15.36-24.3-21.25-8.81-5.88-17.79-8.83-26.94-8.83h-127.32v173.29h98.27c5.99,0,11.27-1.56,15.85-4.69,4.57-3.12,8.36-7.35,11.36-12.69,2.99-5.33,5.28-11.31,6.87-17.94,1.58-6.62,2.38-13.25,2.38-19.87h9.51v119.2h-9.51c0-6.62-.79-13.25-2.38-19.87-1.58-6.62-3.79-12.5-6.6-17.66-2.82-5.15-6.52-9.38-11.09-12.69-4.58-3.31-9.86-4.97-15.85-4.97h-98.79v195.36h140c12.33,0,23.16-2.94,32.49-8.83,9.33-5.88,17.25-12.87,23.77-20.97,6.51-8.09,11.71-16.46,15.58-25.11,3.87-8.64,6.51-15.54,7.92-20.69h9.51Z"/>
          <path class="cls-2" d="M944.09,366.99c2.81,6.26,6.08,10.4,9.77,12.42,3.7,2.03,8.54,3.23,14.53,3.59v7.73h-110.42v-7.73c4.23,0,8.27-.18,12.15-.55,3.17-.73,6.34-1.66,9.51-2.76s5.46-2.76,6.87-4.97c2.46-4.04,3.43-8.46,2.91-13.25-.53-4.78-1.68-9.19-3.43-13.24-2.82-8.09-7.49-20.7-14-37.8-6.52-17.11-13.83-36.33-21.93-57.67h-147.93c-4.58,12.14-8.9,23.64-12.94,34.49-4.05,10.86-7.66,20.51-10.83,28.97-3.17,8.47-5.81,15.64-7.92,21.52-2.11,5.89-3.52,9.75-4.23,11.59-1.41,3.68-2.47,7.82-3.17,12.42-.71,4.6,0,8.55,2.11,11.87,3.87,6.62,11.27,9.93,22.19,9.93h3.7v7.17h-64.98v-8.28c4.23-.73,9.42-3.04,15.58-6.9,6.16-3.86,11.36-11.12,15.59-21.8,2.11-5.52,5.72-14.9,10.83-28.15,5.1-13.25,10.91-28.6,17.43-46.08,6.51-17.47,13.64-36.51,21.4-57.12,7.74-20.6,15.49-41.2,23.25-61.81,17.96-48.56,37.86-101.91,59.7-160.04h10.04l144.23,366.44ZM846.88,244.48c-8.11-21.7-16.21-43.6-24.3-65.67-8.11-22.08-15.68-42.3-22.72-60.71-8.11-21.33-15.85-41.94-23.25-61.81-7.75,20.24-15.68,41.03-23.77,62.36-7.05,18.4-14.71,38.63-22.98,60.71-8.28,22.07-16.47,43.79-24.57,65.12h141.59Z"/>
          <path class="cls-2" d="M1347.71,7.17c-3.88,0-6.87,1.1-8.98,3.31s-3.62,5.16-4.49,8.83c-.88,3.68-1.41,7.54-1.58,11.59-.18,4.05-.26,8.1-.26,12.14v305.18c0,3.68.08,7.64.26,11.86.17,4.23.7,8.1,1.58,11.59.88,3.5,2.38,6.44,4.49,8.83,2.11,2.4,5.1,3.59,8.98,3.59v6.62h-77.66v-6.62c3.87,0,6.87-1.1,8.98-3.31s3.61-5.15,4.49-8.83c.88-3.67,1.4-7.63,1.58-11.87.17-4.22.26-8.18.26-11.86V27.04l-127.32,328.36h-22.19L1004.84,56.84v291.39c0,3.68.08,7.64.26,11.86.17,4.23.7,8.19,1.58,11.87.88,3.68,2.38,6.62,4.49,8.83s5.1,3.31,8.98,3.31v6.62h-40.68v-6.62c3.87,0,6.87-1.1,8.98-3.31s3.61-5.15,4.49-8.83c.88-3.67,1.4-7.63,1.58-11.87.17-4.22.26-8.18.26-11.86V43.04c0-4.04-.09-8.09-.26-12.14-.18-4.04-.71-7.91-1.58-11.59-.88-3.67-2.38-6.62-4.49-8.83s-5.11-3.31-8.98-3.31V.55h56l129.96,307.39L1285.37.55h62.34v6.62Z"/>
        </g>
      </g>
    </g>
  </g>
</svg>