<?xml version="1.0" encoding="UTF-8"?>
<svg id="Layer_2" data-name="Layer 2" xmlns="http://www.w3.org/2000/svg" viewBox="0 0 1673.85 192.97">
  <defs>
    <style>
      .cls-1 {
        fill: #e8e8e8;
        stroke-width: 0px;
      }
    </style>
  </defs>
  <g id="main_design" data-name="main design">
    <g>
      <path class="cls-1" d="M263.44.81v4.07c-2.35.36-5.06,1.49-8.13,3.39-3.07,1.9-5.69,5.47-7.86,10.71-1.45,3.62-4.16,10.39-8.13,20.33-3.98,9.94-8.5,21.37-13.55,34.29-5.06,12.92-10.3,26.34-15.72,40.25-9.4,23.85-19.7,50.05-30.9,78.6h-4.88l-42.55-102.99c-4.7,12.11-9.44,24.26-14.23,36.45-4.79,12.2-9.17,23.27-13.14,33.2-4.52,11.56-8.86,22.68-13.01,33.34h-4.88L12.47,12.47c-1.63-3.07-3.34-5.1-5.15-6.1-1.81-.99-4.25-1.58-7.32-1.76V.81h56.64v3.52c-2.17,0-4.25.18-6.23.54-1.63.18-3.21.54-4.74,1.08-1.54.54-2.76,1.45-3.66,2.71-1.27,1.99-1.76,4.16-1.49,6.5.27,2.35.77,4.52,1.49,6.5,1.26,2.89,3.02,7.18,5.29,12.87,2.26,5.69,4.79,12.2,7.59,19.51,2.8,7.32,5.83,15.14,9.08,23.44,3.25,8.31,6.5,16.53,9.76,24.66,7.41,19.34,15.54,40.29,24.39,62.88,3.25-8.13,6.68-16.62,10.3-25.48,3.07-7.59,6.5-16.13,10.3-25.61,3.79-9.49,7.59-19.11,11.38-28.86L100.01,12.47c-1.45-3.07-3.07-5.1-4.88-6.1-1.81-.99-4.25-1.58-7.32-1.76V.81h87.81v4.07c-2.35.36-5.06,1.49-8.13,3.39-3.07,1.9-5.69,5.47-7.86,10.71-1.27,2.89-3.25,7.77-5.96,14.64-2.71,6.87-5.87,15-9.49,24.39,2.17,5.42,4.42,11.11,6.78,17.07,2.35,5.96,4.7,11.97,7.05,18.02,2.35,6.06,4.65,12.02,6.91,17.89,2.26,5.87,4.47,11.52,6.64,16.94,4.88,12.47,9.66,24.84,14.36,37.13,9.94-24.93,18.97-47.61,27.1-68.03,3.43-8.67,6.82-17.21,10.16-25.61,3.34-8.4,6.41-16.13,9.21-23.17,2.8-7.05,5.1-13.01,6.91-17.89,1.8-4.88,2.98-7.95,3.52-9.21.72-1.8,1.26-3.84,1.63-6.1.36-2.26,0-4.2-1.08-5.83-1.81-3.25-5.69-4.88-11.65-4.88h-1.9V.81h33.61ZM129.82,21.68c1.26,2.89,2.98,7.14,5.15,12.74,2.17,5.6,4.61,11.93,7.32,18.97,3.43-8.31,6.28-15.4,8.54-21.28,2.26-5.87,3.66-9.53,4.2-10.98.72-1.8,1.26-3.84,1.63-6.1.36-2.26,0-4.2-1.08-5.83-.91-1.63-2.26-2.85-4.07-3.66-1.81-.81-4.52-1.22-8.13-1.22-.72,0-1.72.05-2.98.14-1.27.09-2.57.27-3.93.54-1.36.27-2.67.72-3.93,1.36-1.27.63-2.17,1.4-2.71,2.3-1.45,1.99-1.99,4.16-1.63,6.5.36,2.35.9,4.52,1.63,6.5Z"/>
      <path class="cls-1" d="M308.7,4.07c-1.99,0-3.52.54-4.61,1.63s-1.85,2.53-2.3,4.34c-.45,1.81-.72,3.71-.81,5.69-.09,1.99-.14,3.98-.14,5.96v149.88c0,1.81.04,3.75.14,5.83.09,2.08.36,3.98.81,5.69.45,1.72,1.22,3.16,2.3,4.34,1.08,1.18,2.62,1.76,4.61,1.76v3.25h-39.84v-3.25c1.99,0,3.52-.54,4.61-1.63,1.08-1.08,1.85-2.53,2.3-4.34.45-1.8.72-3.75.81-5.83.09-2.08.14-4.02.14-5.83V21.68c0-1.99-.05-3.97-.14-5.96-.09-1.99-.36-3.88-.81-5.69-.45-1.8-1.22-3.25-2.3-4.34s-2.62-1.63-4.61-1.63V.81h39.84v3.25Z"/>
      <path class="cls-1" d="M324.42,192.43v-3.25c1.99,0,3.52-.58,4.61-1.76,1.08-1.17,1.85-2.62,2.3-4.34.45-1.71.72-3.61.81-5.69.09-2.08.14-4.02.14-5.83V21.68c0-1.99-.05-3.97-.14-5.96-.09-1.99-.36-3.88-.81-5.69-.45-1.8-1.22-3.25-2.3-4.34s-2.62-1.63-4.61-1.63V.81h39.84v3.25c-1.99,0-3.52.54-4.61,1.63s-1.86,2.53-2.3,4.34c-.45,1.81-.72,3.71-.81,5.69-.09,1.99-.14,3.98-.14,5.96v167.77h49.6c4.7,0,9.3-1.44,13.82-4.34,4.51-2.89,8.67-6.37,12.47-10.43,3.79-4.07,7-8.17,9.62-12.33,2.62-4.15,4.29-7.5,5.01-10.03h4.88l-8.4,40.38-118.98-.27Z"/>
      <path class="cls-1" d="M459.93,192.43v-3.25c1.99,0,3.52-.58,4.61-1.76,1.08-1.17,1.85-2.62,2.3-4.34.45-1.71.72-3.61.81-5.69.09-2.08.14-4.02.14-5.83V21.68c0-1.99-.05-3.97-.14-5.96-.09-1.99-.36-3.88-.81-5.69-.45-1.8-1.22-3.25-2.3-4.34s-2.62-1.63-4.61-1.63V.81h39.84v3.25c-1.99,0-3.52.54-4.61,1.63s-1.85,2.53-2.3,4.34c-.45,1.81-.72,3.71-.81,5.69-.09,1.99-.14,3.98-.14,5.96v167.77h49.6c4.7,0,9.3-1.44,13.82-4.34,4.51-2.89,8.67-6.37,12.47-10.43,3.79-4.07,7-8.17,9.62-12.33,2.62-4.15,4.29-7.5,5.01-10.03h4.88l-8.4,40.38-118.98-.27Z"/>
      <path class="cls-1" d="M745.05,164.78c2.35,3.25,4.65,6.33,6.91,9.21,2.26,2.89,4.47,5.47,6.64,7.72,2.17,2.26,4.24,4.06,6.23,5.42,1.99,1.36,3.88,2.03,5.69,2.03v3.25h-21.41c-3.98,0-7.28-.36-9.89-1.08-2.62-.72-4.92-1.85-6.91-3.39-1.99-1.53-3.93-3.43-5.83-5.69-1.9-2.26-4.02-4.92-6.37-8-6.69-10.3-13.19-20.23-19.51-29.81-2.71-3.97-5.42-8.04-8.13-12.2-2.71-4.15-5.38-8.22-8-12.2-2.62-3.97-5.11-7.68-7.45-11.11-2.35-3.43-4.34-6.32-5.96-8.67-2.35-3.43-4.84-5.83-7.45-7.18-2.62-1.36-5.38-2.03-8.27-2.03-4.7,0-9.4,1.49-14.09,4.47-4.7,2.98-9.4,6.46-14.09,10.43v65.59c0,1.81.04,3.75.14,5.83.09,2.08.36,3.98.81,5.69.45,1.72,1.22,3.16,2.3,4.34,1.08,1.18,2.62,1.76,4.61,1.76v3.25h-39.84v-3.25c1.99,0,3.52-.54,4.61-1.63,1.08-1.08,1.85-2.53,2.3-4.34.45-1.8.72-3.75.81-5.83.09-2.08.14-4.02.14-5.83V21.68c0-1.99-.05-3.97-.14-5.96-.09-1.99-.36-3.88-.81-5.69-.45-1.8-1.22-3.25-2.3-4.34s-2.62-1.63-4.61-1.63V.81h39.84v3.25c-1.99,0-3.52.54-4.61,1.63s-1.85,2.53-2.3,4.34c-.45,1.81-.72,3.71-.81,5.69-.09,1.99-.14,3.98-.14,5.96v79.41c13.55-13.01,26.11-25.11,37.67-36.32,4.88-4.7,9.85-9.49,14.91-14.36,5.06-4.88,9.85-9.49,14.36-13.82,4.51-4.34,8.54-8.22,12.06-11.65,3.52-3.43,6.28-6.05,8.27-7.86.9-.9,1.8-2.08,2.71-3.52.9-1.44,1.36-2.89,1.36-4.34s-.68-2.71-2.03-3.79c-1.35-1.08-3.93-1.63-7.72-1.63V.81h37.94v2.98c-6.5.36-12.06,2.26-16.67,5.69-4.61,3.43-9.8,8.04-15.58,13.82-1.45,1.45-3.48,3.43-6.1,5.96-2.62,2.53-5.6,5.38-8.94,8.54-3.35,3.16-6.87,6.5-10.57,10.03-3.71,3.52-7.45,7.09-11.25,10.71-8.67,8.31-18.07,17.26-28.19,26.83,1.8-1.26,4.51-3.12,8.13-5.56,3.61-2.44,8.85-3.66,15.72-3.66,3.25,0,6.23.68,8.94,2.03,2.71,1.35,5.15,2.98,7.32,4.88s4.11,3.93,5.83,6.1c1.71,2.17,3.12,4.07,4.2,5.69s2.8,4.29,5.15,8c2.35,3.71,5.06,7.91,8.13,12.6,3.07,4.7,6.28,9.67,9.62,14.91,3.34,5.24,6.5,10.16,9.49,14.77,2.98,4.61,5.64,8.72,8,12.33,2.35,3.62,4.07,6.06,5.15,7.32Z"/>
      <path class="cls-1" d="M844.79,192.97c-10.84,0-21.55-2.08-32.12-6.23-10.57-4.15-20.06-10.3-28.46-18.43-8.4-8.13-15.22-18.2-20.46-30.22-5.24-12.01-7.86-25.88-7.86-41.6s2.66-29.58,8-41.6c5.33-12.01,12.33-22.09,21-30.22s18.57-14.27,29.68-18.43c11.11-4.15,22.36-6.23,33.74-6.23s22.27,2.08,33.2,6.23c10.93,4.16,20.73,10.3,29.41,18.43s15.67,18.21,21,30.22c5.33,12.02,8,25.88,8,41.6s-2.94,30.72-8.81,42.82c-5.87,12.11-13.19,22.13-21.95,30.08-8.77,7.95-18.29,13.87-28.59,17.75-10.3,3.89-19.88,5.83-28.73,5.83h-7.05ZM847.77,3.79c-8.85,0-17.17,2.4-24.93,7.18-7.77,4.79-14.5,11.34-20.19,19.65-5.69,8.31-10.16,18.12-13.42,29.41-3.25,11.29-4.88,23.44-4.88,36.45,0,10.48,1.67,21.19,5.01,32.12,3.34,10.93,7.86,20.87,13.55,29.81,5.69,8.94,12.42,16.26,20.19,21.95,7.77,5.69,15.99,8.54,24.66,8.54s16.85-2.48,24.53-7.45c7.68-4.97,14.41-11.65,20.19-20.06,5.78-8.4,10.39-18.25,13.82-29.54,3.43-11.29,5.15-23.17,5.15-35.64s-1.63-25.11-4.88-36.32c-3.25-11.2-7.77-20.96-13.55-29.27-5.78-8.31-12.51-14.86-20.19-19.65-7.68-4.79-16.04-7.18-25.07-7.18Z"/>
      <path class="cls-1" d="M1142.1,4.07c-1.99,0-3.52.54-4.61,1.63s-1.85,2.53-2.3,4.34c-.45,1.81-.72,3.71-.81,5.69-.09,1.99-.13,3.98-.13,5.96v149.88c0,1.81.04,3.75.13,5.83.09,2.08.36,3.98.81,5.69.45,1.72,1.22,3.16,2.3,4.34,1.08,1.18,2.62,1.76,4.61,1.76v3.25h-39.84v-3.25c1.99,0,3.52-.54,4.61-1.63,1.08-1.08,1.85-2.53,2.3-4.34.45-1.8.72-3.75.81-5.83.09-2.08.13-4.02.13-5.83V13.82l-65.32,161.26h-11.38l-67.21-146.62v143.1c0,1.81.04,3.75.14,5.83.09,2.08.36,4.02.81,5.83.45,1.81,1.22,3.25,2.3,4.34,1.08,1.08,2.62,1.63,4.61,1.63v3.25h-20.87v-3.25c1.99,0,3.52-.54,4.61-1.63,1.08-1.08,1.85-2.53,2.3-4.34.45-1.8.72-3.75.81-5.83.09-2.08.13-4.02.13-5.83V21.68c0-1.99-.05-3.97-.13-5.96-.09-1.99-.36-3.88-.81-5.69-.45-1.8-1.22-3.25-2.3-4.34s-2.62-1.63-4.61-1.63V.81h28.73l66.67,150.96L1110.12.81h31.98v3.25Z"/>
      <path class="cls-1" d="M1346.18,4.07c-1.99,0-3.52.54-4.61,1.63s-1.85,2.53-2.3,4.34c-.45,1.81-.72,3.71-.81,5.69-.09,1.99-.13,3.98-.13,5.96v149.88c0,1.81.04,3.75.13,5.83.09,2.08.36,3.98.81,5.69.45,1.72,1.22,3.16,2.3,4.34,1.08,1.18,2.62,1.76,4.61,1.76v3.25h-39.84v-3.25c1.99,0,3.52-.54,4.61-1.63,1.08-1.08,1.85-2.53,2.3-4.34.45-1.8.72-3.75.81-5.83.09-2.08.13-4.02.13-5.83V13.82l-65.32,161.26h-11.38l-67.21-146.62v143.1c0,1.81.04,3.75.14,5.83.09,2.08.36,4.02.81,5.83.45,1.81,1.22,3.25,2.3,4.34,1.08,1.08,2.62,1.63,4.61,1.63v3.25h-20.87v-3.25c1.99,0,3.52-.54,4.61-1.63,1.08-1.08,1.85-2.53,2.3-4.34.45-1.8.72-3.75.81-5.83.09-2.08.13-4.02.13-5.83V21.68c0-1.99-.05-3.97-.13-5.96-.09-1.99-.36-3.88-.81-5.69-.45-1.8-1.22-3.25-2.3-4.34s-2.62-1.63-4.61-1.63V.81h28.73l66.67,150.96L1314.2.81h31.98v3.25Z"/>
      <path class="cls-1" d="M1511.23,152.05l-8.4,40.38h-141.21v-3.25c1.99,0,3.52-.58,4.61-1.76,1.08-1.17,1.85-2.62,2.3-4.34.45-1.71.72-3.61.81-5.69.09-2.08.14-4.02.14-5.83V21.68c0-1.99-.05-3.97-.14-5.96-.09-1.99-.36-3.88-.81-5.69-.45-1.8-1.22-3.25-2.3-4.34-1.08-1.08-2.62-1.63-4.61-1.63V.81l134.7-.27,8.4,40.38h-4.88c-.72-2.53-2.4-5.87-5.01-10.03-2.62-4.15-5.83-8.27-9.62-12.33-3.79-4.07-7.95-7.54-12.47-10.43-4.52-2.89-9.13-4.34-13.82-4.34h-65.32v85.1h50.41c3.07,0,5.78-.77,8.13-2.3,2.35-1.53,4.29-3.61,5.83-6.23,1.53-2.62,2.71-5.56,3.52-8.81.81-3.25,1.22-6.5,1.22-9.76h4.88v58.54h-4.88c0-3.25-.41-6.5-1.22-9.76-.81-3.25-1.94-6.14-3.39-8.67-1.45-2.53-3.35-4.61-5.69-6.23-2.35-1.63-5.06-2.44-8.13-2.44h-50.68v95.94h71.82c6.32,0,11.88-1.44,16.67-4.34,4.79-2.89,8.85-6.32,12.2-10.3,3.34-3.97,6-8.08,8-12.33,1.99-4.24,3.34-7.63,4.07-10.16h4.88Z"/>
      <path class="cls-1" d="M1673.85.81v3.25c-1.99,0-3.52.54-4.61,1.63s-1.86,2.53-2.3,4.34c-.45,1.81-.72,3.71-.81,5.69-.09,1.99-.14,3.98-.14,5.96v170.75h-4.88l-125.76-178.61v157.74c0,1.81.04,3.75.14,5.83.09,2.08.36,4.02.81,5.83.45,1.81,1.22,3.25,2.3,4.34,1.08,1.08,2.62,1.63,4.61,1.63v3.25h-20.87v-3.25c1.99,0,3.52-.54,4.61-1.63,1.08-1.08,1.85-2.53,2.3-4.34.45-1.8.72-3.75.81-5.83.09-2.08.13-4.02.13-5.83V21.68c0-1.99-.05-3.97-.13-5.96-.09-1.99-.36-3.88-.81-5.69-.45-1.8-1.22-3.25-2.3-4.34s-2.62-1.63-4.61-1.63V.81h35.78l102.99,142.56V21.68c0-1.99-.05-3.97-.14-5.96-.09-1.99-.36-3.88-.81-5.69-.45-1.8-1.22-3.25-2.3-4.34-1.08-1.08-2.62-1.63-4.61-1.63V.81h20.6Z"/>
    </g>
  </g>
</svg>